<svg xmlns="http://www.w3.org/2000/svg" width="121.981" height="122.908" viewBox="0 0 121.981 122.908">
  <path id="pg3_dotsPlay" d="M80,121.407a1.5,1.5,0,1,1,1.5,1.5A1.5,1.5,0,0,1,80,121.407Zm-10,0a1.5,1.5,0,1,1,1.5,1.5A1.5,1.5,0,0,1,70,121.407Zm-10,0a1.5,1.5,0,1,1,1.5,1.5A1.5,1.5,0,0,1,60,121.407Zm-10,0a1.5,1.5,0,1,1,1.5,1.5A1.5,1.5,0,0,1,50,121.407Zm-10,0a1.5,1.5,0,1,1,1.5,1.5A1.5,1.5,0,0,1,40,121.407Zm-10,0a1.5,1.5,0,1,1,1.5,1.5A1.5,1.5,0,0,1,30,121.407Zm60-10a1.5,1.5,0,1,1,1.5,1.5A1.5,1.5,0,0,1,90,111.407Zm-10,0a1.5,1.5,0,1,1,1.5,1.5A1.5,1.5,0,0,1,80,111.407Zm-10,0a1.5,1.5,0,1,1,1.5,1.5A1.5,1.5,0,0,1,70,111.407Zm-10,0a1.5,1.5,0,1,1,1.5,1.5A1.5,1.5,0,0,1,60,111.407Zm-10,0a1.5,1.5,0,1,1,1.5,1.5A1.5,1.5,0,0,1,50,111.407Zm-10,0a1.5,1.5,0,1,1,1.5,1.5A1.5,1.5,0,0,1,40,111.407Zm-10,0a1.5,1.5,0,1,1,1.5,1.5A1.5,1.5,0,0,1,30,111.407Zm-10,0a1.5,1.5,0,1,1,1.5,1.5A1.5,1.5,0,0,1,20,111.407Zm80,0a1.5,1.5,0,0,1,2.662-.949q-1.068,1.048-2.185,2.046A1.5,1.5,0,0,1,100,111.407Zm-88.182-1.467a1.5,1.5,0,0,1,1.142,1.118C12.575,110.691,12.193,110.317,11.818,109.941ZM100,101.408a1.5,1.5,0,1,1,1.5,1.5A1.5,1.5,0,0,1,100,101.408Zm-10,0a1.5,1.5,0,1,1,1.5,1.5A1.5,1.5,0,0,1,90,101.408Zm-10,0a1.5,1.5,0,1,1,1.5,1.5A1.5,1.5,0,0,1,80,101.408Zm-10,0a1.5,1.5,0,1,1,1.5,1.5A1.5,1.5,0,0,1,70,101.408Zm-10,0a1.5,1.5,0,1,1,1.5,1.5A1.5,1.5,0,0,1,60,101.408Zm-10,0a1.5,1.5,0,1,1,1.5,1.5A1.5,1.5,0,0,1,50,101.408Zm-10,0a1.5,1.5,0,1,1,1.5,1.5A1.5,1.5,0,0,1,40,101.408Zm-10,0a1.5,1.5,0,1,1,1.5,1.5A1.5,1.5,0,0,1,30,101.408Zm-10,0a1.5,1.5,0,1,1,1.5,1.5A1.5,1.5,0,0,1,20,101.408Zm-10,0a1.5,1.5,0,1,1,1.5,1.5A1.5,1.5,0,0,1,10,101.408Zm100,0a1.5,1.5,0,0,1,1.355-1.493q-.634.959-1.3,1.9A1.5,1.5,0,0,1,110,101.408Zm0-10a1.5,1.5,0,1,1,1.5,1.5A1.5,1.5,0,0,1,110,91.408Zm-10,0a1.5,1.5,0,1,1,1.5,1.5A1.5,1.5,0,0,1,100,91.408Zm-10,0a1.5,1.5,0,1,1,1.5,1.5A1.5,1.5,0,0,1,90,91.408Zm-10,0a1.5,1.5,0,1,1,1.5,1.5A1.5,1.5,0,0,1,80,91.408Zm-10,0a1.5,1.5,0,1,1,1.5,1.5A1.5,1.5,0,0,1,70,91.408Zm-10,0a1.5,1.5,0,1,1,1.5,1.5A1.5,1.5,0,0,1,60,91.408Zm-10,0a1.5,1.5,0,1,1,1.5,1.5A1.5,1.5,0,0,1,50,91.408Zm-10,0a1.5,1.5,0,1,1,1.5,1.5A1.5,1.5,0,0,1,40,91.408Zm-10,0a1.5,1.5,0,1,1,1.5,1.5A1.5,1.5,0,0,1,30,91.408Zm-10,0a1.5,1.5,0,1,1,1.5,1.5A1.5,1.5,0,0,1,20,91.408Zm-10,0a1.5,1.5,0,1,1,1.5,1.5A1.5,1.5,0,0,1,10,91.408Zm-10,0a1.5,1.5,0,1,1,1.5,1.5A1.5,1.5,0,0,1,0,91.408Zm110-10a1.5,1.5,0,1,1,1.5,1.5A1.5,1.5,0,0,1,110,81.408Zm-10,0a1.5,1.5,0,1,1,1.5,1.5A1.5,1.5,0,0,1,100,81.408Zm-10,0a1.5,1.5,0,1,1,1.5,1.5A1.5,1.5,0,0,1,90,81.408Zm-10,0a1.5,1.5,0,1,1,1.5,1.5A1.5,1.5,0,0,1,80,81.408Zm-10,0a1.5,1.5,0,1,1,1.5,1.5A1.5,1.5,0,0,1,70,81.408Zm-10,0a1.5,1.5,0,1,1,1.5,1.5A1.5,1.5,0,0,1,60,81.408Zm-10,0a1.5,1.5,0,1,1,1.5,1.5A1.5,1.5,0,0,1,50,81.408Zm-10,0a1.5,1.5,0,1,1,1.5,1.5A1.5,1.5,0,0,1,40,81.408Zm-10,0a1.5,1.5,0,1,1,1.5,1.5A1.5,1.5,0,0,1,30,81.408Zm-10,0a1.5,1.5,0,1,1,1.5,1.5A1.5,1.5,0,0,1,20,81.408Zm-10,0a1.5,1.5,0,1,1,1.5,1.5A1.5,1.5,0,0,1,10,81.408Zm-10,0a1.5,1.5,0,1,1,1.5,1.5A1.5,1.5,0,0,1,0,81.408Zm110-10a1.5,1.5,0,1,1,1.5,1.5A1.5,1.5,0,0,1,110,71.407Zm-10,0a1.5,1.5,0,1,1,1.5,1.5A1.5,1.5,0,0,1,100,71.407Zm-10,0a1.5,1.5,0,1,1,1.5,1.5A1.5,1.5,0,0,1,90,71.407Zm-10,0a1.5,1.5,0,1,1,1.5,1.5A1.5,1.5,0,0,1,80,71.407Zm-10,0a1.5,1.5,0,1,1,1.5,1.5A1.5,1.5,0,0,1,70,71.407Zm-10,0a1.5,1.5,0,1,1,1.5,1.5A1.5,1.5,0,0,1,60,71.407Zm-10,0a1.5,1.5,0,1,1,1.5,1.5A1.5,1.5,0,0,1,50,71.407Zm-10,0a1.5,1.5,0,1,1,1.5,1.5A1.5,1.5,0,0,1,40,71.407Zm-10,0a1.5,1.5,0,1,1,1.5,1.5A1.5,1.5,0,0,1,30,71.407Zm-10,0a1.5,1.5,0,1,1,1.5,1.5A1.5,1.5,0,0,1,20,71.407Zm-10,0a1.5,1.5,0,1,1,1.5,1.5A1.5,1.5,0,0,1,10,71.407Zm-10,0a1.5,1.5,0,1,1,1.5,1.5A1.5,1.5,0,0,1,0,71.407Zm120,0a1.5,1.5,0,0,1,1.767-1.476q-.127,1.5-.322,2.975A1.5,1.5,0,0,1,120,71.407Zm0-10a1.5,1.5,0,0,1,1.848-1.459c.065.953.11,1.916.133,2.88A1.5,1.5,0,0,1,120,61.407Zm-10,0a1.5,1.5,0,1,1,1.5,1.5A1.5,1.5,0,0,1,110,61.407Zm-10,0a1.5,1.5,0,1,1,1.5,1.5A1.5,1.5,0,0,1,100,61.407Zm-10,0a1.5,1.5,0,1,1,1.5,1.5A1.5,1.5,0,0,1,90,61.407Zm-10,0a1.5,1.5,0,1,1,1.5,1.5A1.5,1.5,0,0,1,80,61.407Zm-10,0a1.5,1.5,0,1,1,1.5,1.5A1.5,1.5,0,0,1,70,61.407Zm-10,0a1.5,1.5,0,1,1,1.5,1.5A1.5,1.5,0,0,1,60,61.407Zm-10,0a1.5,1.5,0,1,1,1.5,1.5A1.5,1.5,0,0,1,50,61.407Zm-10,0a1.5,1.5,0,1,1,1.5,1.5A1.5,1.5,0,0,1,40,61.407Zm-10,0a1.5,1.5,0,1,1,1.5,1.5A1.5,1.5,0,0,1,30,61.407Zm-10,0a1.5,1.5,0,1,1,1.5,1.5A1.5,1.5,0,0,1,20,61.407Zm-10,0a1.5,1.5,0,1,1,1.5,1.5A1.5,1.5,0,0,1,10,61.407Zm-10,0a1.5,1.5,0,1,1,1.5,1.5A1.5,1.5,0,0,1,0,61.407Zm110-10a1.5,1.5,0,1,1,1.5,1.5A1.5,1.5,0,0,1,110,51.407Zm-10,0a1.5,1.5,0,1,1,1.5,1.5A1.5,1.5,0,0,1,100,51.407Zm-10,0a1.5,1.5,0,1,1,1.5,1.5A1.5,1.5,0,0,1,90,51.407Zm-10,0a1.5,1.5,0,1,1,1.5,1.5A1.5,1.5,0,0,1,80,51.407Zm-10,0a1.5,1.5,0,1,1,1.5,1.5A1.5,1.5,0,0,1,70,51.407Zm-10,0a1.5,1.5,0,1,1,1.5,1.5A1.5,1.5,0,0,1,60,51.407Zm-10,0a1.5,1.5,0,1,1,1.5,1.5A1.5,1.5,0,0,1,50,51.407Zm-10,0a1.5,1.5,0,1,1,1.5,1.5A1.5,1.5,0,0,1,40,51.407Zm-10,0a1.5,1.5,0,1,1,1.5,1.5A1.5,1.5,0,0,1,30,51.407Zm-10,0a1.5,1.5,0,1,1,1.5,1.5A1.5,1.5,0,0,1,20,51.407Zm-10,0a1.5,1.5,0,1,1,1.5,1.5A1.5,1.5,0,0,1,10,51.407Zm-10,0a1.5,1.5,0,1,1,1.5,1.5A1.5,1.5,0,0,1,0,51.407Zm120,0a1.5,1.5,0,0,1,.459-1.079q.274,1.232.5,2.479A1.5,1.5,0,0,1,120,51.407Zm-10-10a1.5,1.5,0,1,1,1.5,1.5A1.5,1.5,0,0,1,110,41.407Zm-10,0a1.5,1.5,0,1,1,1.5,1.5A1.5,1.5,0,0,1,100,41.407Zm-10,0a1.5,1.5,0,1,1,1.5,1.5A1.5,1.5,0,0,1,90,41.407Zm-10,0a1.5,1.5,0,1,1,1.5,1.5A1.5,1.5,0,0,1,80,41.407Zm-10,0a1.5,1.5,0,1,1,1.5,1.5A1.5,1.5,0,0,1,70,41.407Zm-10,0a1.5,1.5,0,1,1,1.5,1.5A1.5,1.5,0,0,1,60,41.407Zm-10,0a1.5,1.5,0,1,1,1.5,1.5A1.5,1.5,0,0,1,50,41.407Zm-10,0a1.5,1.5,0,1,1,1.5,1.5A1.5,1.5,0,0,1,40,41.407Zm-10,0a1.5,1.5,0,1,1,1.5,1.5A1.5,1.5,0,0,1,30,41.407Zm-10,0a1.5,1.5,0,1,1,1.5,1.5A1.5,1.5,0,0,1,20,41.407Zm-10,0a1.5,1.5,0,1,1,1.5,1.5A1.5,1.5,0,0,1,10,41.407Zm-10,0a1.5,1.5,0,1,1,1.5,1.5A1.5,1.5,0,0,1,0,41.407Zm110-10a1.5,1.5,0,0,1,2.081-1.383c.312.495.616.99.915,1.494a1.5,1.5,0,0,1-3-.11Zm-10,0a1.5,1.5,0,1,1,1.5,1.5A1.5,1.5,0,0,1,100,31.407Zm-10,0a1.5,1.5,0,1,1,1.5,1.5A1.5,1.5,0,0,1,90,31.407Zm-10,0a1.5,1.5,0,1,1,1.5,1.5A1.5,1.5,0,0,1,80,31.407Zm-10,0a1.5,1.5,0,1,1,1.5,1.5A1.5,1.5,0,0,1,70,31.407Zm-10,0a1.5,1.5,0,1,1,1.5,1.5A1.5,1.5,0,0,1,60,31.407Zm-10,0a1.5,1.5,0,1,1,1.5,1.5A1.5,1.5,0,0,1,50,31.407Zm-10,0a1.5,1.5,0,1,1,1.5,1.5A1.5,1.5,0,0,1,40,31.407Zm-10,0a1.5,1.5,0,1,1,1.5,1.5A1.5,1.5,0,0,1,30,31.407Zm-10,0a1.5,1.5,0,1,1,1.5,1.5A1.5,1.5,0,0,1,20,31.407Zm-10,0a1.5,1.5,0,1,1,1.5,1.5A1.5,1.5,0,0,1,10,31.407ZM1.217,32.881q.692-1.232,1.436-2.433a1.5,1.5,0,0,1-1.436,2.433ZM100,21.407a1.5,1.5,0,1,1,1.5,1.5A1.5,1.5,0,0,1,100,21.407Zm-10,0a1.5,1.5,0,1,1,1.5,1.5A1.5,1.5,0,0,1,90,21.407Zm-10,0a1.5,1.5,0,1,1,1.5,1.5A1.5,1.5,0,0,1,80,21.407Zm-10,0a1.5,1.5,0,1,1,1.5,1.5A1.5,1.5,0,0,1,70,21.407Zm-10,0a1.5,1.5,0,1,1,1.5,1.5A1.5,1.5,0,0,1,60,21.407Zm-10,0a1.5,1.5,0,1,1,1.5,1.5A1.5,1.5,0,0,1,50,21.407Zm-10,0a1.5,1.5,0,1,1,1.5,1.5A1.5,1.5,0,0,1,40,21.407Zm-10,0a1.5,1.5,0,1,1,1.5,1.5A1.5,1.5,0,0,1,30,21.407Zm-10,0a1.5,1.5,0,1,1,1.5,1.5A1.5,1.5,0,0,1,20,21.407Zm-10,0a1.5,1.5,0,1,1,1.5,1.5A1.5,1.5,0,0,1,10,21.407Zm80-10a1.5,1.5,0,1,1,1.5,1.5A1.5,1.5,0,0,1,90,11.408Zm-10,0a1.5,1.5,0,1,1,1.5,1.5A1.5,1.5,0,0,1,80,11.408Zm-10,0a1.5,1.5,0,1,1,1.5,1.5A1.5,1.5,0,0,1,70,11.408Zm-10,0a1.5,1.5,0,1,1,1.5,1.5A1.5,1.5,0,0,1,60,11.408Zm-10,0a1.5,1.5,0,1,1,1.5,1.5A1.5,1.5,0,0,1,50,11.408Zm-10,0a1.5,1.5,0,1,1,1.5,1.5A1.5,1.5,0,0,1,40,11.408Zm-10,0a1.5,1.5,0,1,1,1.5,1.5A1.5,1.5,0,0,1,30,11.408Zm-9.927.463q1.172-.836,2.381-1.621a1.5,1.5,0,1,1-2.381,1.621ZM70,1.408a1.51,1.51,0,0,1,.027-.285q1.477.291,2.928.648A1.5,1.5,0,0,1,70,1.408Zm-10,0A1.5,1.5,0,0,1,60.981,0c.406.022.806.047,1.21.076A1.5,1.5,0,1,1,60,1.408Zm-10,0A1.5,1.5,0,0,1,50.509.282q.875-.094,1.757-.165A1.5,1.5,0,1,1,50,1.408Zm-9.748.832c.907-.251,1.819-.482,2.742-.694a1.5,1.5,0,0,1-2.742.694Z" transform="translate(0 0)" fill="#fff"/>
</svg>
