<?xml version="1.0" encoding="utf-8"?>
<!-- Generator: Adobe Illustrator 24.1.2, SVG Export Plug-In . SVG Version: 6.00 Build 0)  -->
<svg preserveAspectRatio="none" version="1.1" id="Layer_1" xmlns="http://www.w3.org/2000/svg" xmlns:xlink="http://www.w3.org/1999/xlink" x="0px" y="0px"
	 viewBox="0 0 2125.4 427.5" style="enable-background:new 0 0 2125.4 427.5;" xml:space="preserve">
<style type="text/css">
	.st0{fill:url(#SVGID_1_);}
	.st1{fill:#f7941d;}
</style>
<g id="Layer_2_1_">
	<g id="MountainRight_Cyan">

			<linearGradient id="SVGID_1_" gradientUnits="userSpaceOnUse" x1="1356.1653" y1="1010.7245" x2="1058.8253" y2="168.2645" gradientTransform="matrix(1 0 0 -1 0 857.9998)">
			<stop  offset="0.22" style="stop-color: #fbb040"/>
			<stop  offset="0.44" style="stop-color:#0e1f33"/>
			<stop  offset="0.63" style="stop-color:#0e1f33"/>
		</linearGradient>
		<path class="st0" d="M0,515.6c387.9-58.5,774.2-93.9,945-145.5c92.2-27.9,211.4-83.4,292.2-132.3
			c130-78.7,193.1-131.4,253.8-179.1c35.6-27.9,56.3-49.5,84.4-56.9c20.9-5.5,46.1,2.6,88.6,13.3c83.9,21.1,348.2,93.6,461.3,140.8
			c0,15.4-4.6,699.2-4.6,699.2H0V515.6z"/>
	</g>
	<g id="Layer_42">
		<path class="st1" d="M2125.3,155.9c-69.2-33.5-87.9-38.4-178.7-67.1c-121.3-38.4-229.8-66.7-240-68.7
			c-17.8-3.5-116.4-28.7-133.3-16c-14.2,10.7,1.8,49.8,64,120.9s133.3,128,78.2,156.4s-261.3,62.2-545.8,87.1S0,516.1,0,516.1v339
			h2115.6L2125.3,155.9z"/>
	</g>
</g>
</svg>
