<!DOCTYPE svg PUBLIC "-//W3C//DTD SVG 1.1//EN" "http://www.w3.org/Graphics/SVG/1.1/DTD/svg11.dtd">

<!-- Uploaded to: SVG Repo, www.svgrepo.com, Transformed by: SVG Repo Mixer Tools -->
<svg height="17px" width="27px" version="1.1" id="Capa_1" xmlns="http://www.w3.org/2000/svg" xmlns:xlink="http://www.w3.org/1999/xlink" viewBox="-21.5 -21.5 258.00 258.00" xml:space="preserve" fill="#0e1f33" stroke="#0e1f33" stroke-width="0.0021500399999999998">

<g id="SVGRepo_bgCarrier" stroke-width="0"/>

<g id="SVGRepo_tracerCarrier" stroke-linecap="round" stroke-linejoin="round" stroke="#CCCCCC" stroke-width="2.5800479999999997"/>

<g id="SVGRepo_iconCarrier"> <g> <path style="fill:#0e1f33;" d="M209.95,76.254H5.06c-2.792,0-5.06,3.139-5.06,7.017c0,3.867,2.267,7.005,5.06,7.005h204.884 c2.787,0,5.06-3.139,5.06-7.005C215.004,79.386,212.731,76.254,209.95,76.254z"/> <path style="fill:#0e1f33;" d="M5.06,52.881h204.884c2.787,0,5.054-3.133,5.06-7.011c0-3.872-2.273-7.011-5.06-7.011H5.06 C2.267,38.859,0,42.004,0,45.87C0,49.749,2.267,52.881,5.06,52.881z"/> <path style="fill:#0e1f33;" d="M209.95,118.308H5.06c-2.792,0-5.06,3.139-5.06,7.011c0,3.872,2.267,7.005,5.06,7.005h204.884 c2.787,0,5.054-3.133,5.06-7.005C215.004,121.441,212.731,118.308,209.95,118.308z"/> <path style="fill:#0e1f33;" d="M209.95,162.123H5.06c-2.792,0-5.06,3.133-5.06,7.005c0,3.872,2.267,7.017,5.06,7.017h204.884 c2.787,0,5.054-3.139,5.06-7.017C215.004,165.249,212.731,162.123,209.95,162.123z"/> </g> </g>

</svg>