<?xml version="1.0" encoding="utf-8"?>
<!-- Generator: Adobe Illustrator 24.1.3, SVG Export Plug-In . SVG Version: 6.00 Build 0)  -->
<svg version="1.1" id="Layer_1" xmlns="http://www.w3.org/2000/svg" xmlns:xlink="http://www.w3.org/1999/xlink" x="0px" y="0px"
	 viewBox="0 0 121 121" style="enable-background:new 0 0 121 121;" xml:space="preserve">
<style type="text/css">
	.st0{fill:#FFFFFF;}
	.st1{clip-path:url(#SVGID_2_);fill:#EC6A8E;}
	.st2{clip-path:url(#SVGID_4_);fill:#EC6A8E;}
	.st3{clip-path:url(#SVGID_6_);fill:#EC6B8D;}
	.st4{clip-path:url(#SVGID_8_);fill:#EC6D8C;}
	.st5{clip-path:url(#SVGID_10_);fill:#EC6E8B;}
	.st6{clip-path:url(#SVGID_12_);fill:#EC6E8B;}
	.st7{clip-path:url(#SVGID_14_);fill:#EC6F8B;}
	.st8{clip-path:url(#SVGID_16_);fill:#EC708A;}
	.st9{clip-path:url(#SVGID_18_);fill:#EC718A;}
	.st10{clip-path:url(#SVGID_20_);fill:#EC7289;}
	.st11{clip-path:url(#SVGID_22_);fill:#EC7389;}
	.st12{clip-path:url(#SVGID_24_);fill:#ED7588;}
	.st13{clip-path:url(#SVGID_26_);fill:#ED7688;}
	.st14{clip-path:url(#SVGID_28_);fill:#ED7787;}
	.st15{clip-path:url(#SVGID_30_);fill:#ED7887;}
	.st16{clip-path:url(#SVGID_32_);fill:#ED7986;}
	.st17{clip-path:url(#SVGID_34_);fill:#ED7A86;}
	.st18{clip-path:url(#SVGID_36_);fill:#ED7B85;}
	.st19{clip-path:url(#SVGID_38_);fill:#ED7B85;}
	.st20{clip-path:url(#SVGID_40_);fill:#ED7C84;}
	.st21{clip-path:url(#SVGID_42_);fill:#ED7D84;}
	.st22{clip-path:url(#SVGID_44_);fill:#ED7E83;}
	.st23{clip-path:url(#SVGID_46_);fill:#ED7F83;}
	.st24{clip-path:url(#SVGID_48_);fill:#ED8082;}
	.st25{clip-path:url(#SVGID_50_);fill:#EE8182;}
	.st26{clip-path:url(#SVGID_52_);fill:#EE8281;}
	.st27{clip-path:url(#SVGID_54_);fill:#EE8381;}
	.st28{clip-path:url(#SVGID_56_);fill:#EE8480;}
	.st29{clip-path:url(#SVGID_58_);fill:#EE8580;}
	.st30{clip-path:url(#SVGID_60_);fill:#EE877F;}
	.st31{clip-path:url(#SVGID_62_);fill:#EE887F;}
	.st32{clip-path:url(#SVGID_64_);fill:#EE897E;}
	.st33{clip-path:url(#SVGID_66_);fill:#EE8A7E;}
	.st34{clip-path:url(#SVGID_68_);fill:#EE8B7D;}
	.st35{clip-path:url(#SVGID_70_);fill:#EF8C7D;}
	.st36{clip-path:url(#SVGID_72_);fill:#EF8D7C;}
	.st37{clip-path:url(#SVGID_74_);fill:#EF8E7C;}
	.st38{clip-path:url(#SVGID_76_);fill:#EF8F7B;}
	.st39{clip-path:url(#SVGID_78_);fill:#EF907B;}
	.st40{clip-path:url(#SVGID_80_);fill:#EF917A;}
	.st41{clip-path:url(#SVGID_82_);fill:#EF917A;}
	.st42{clip-path:url(#SVGID_84_);fill:#EF9279;}
	.st43{clip-path:url(#SVGID_86_);fill:#EF9379;}
	.st44{clip-path:url(#SVGID_88_);fill:#EF9478;}
	.st45{clip-path:url(#SVGID_90_);fill:#EF9578;}
	.st46{clip-path:url(#SVGID_92_);fill:#F09677;}
	.st47{clip-path:url(#SVGID_94_);fill:#F09777;}
	.st48{clip-path:url(#SVGID_96_);fill:#F09876;}
	.st49{clip-path:url(#SVGID_98_);fill:#F09976;}
	.st50{clip-path:url(#SVGID_100_);fill:#F09A75;}
	.st51{clip-path:url(#SVGID_102_);fill:#F09B75;}
	.st52{clip-path:url(#SVGID_104_);fill:#F09C74;}
	.st53{clip-path:url(#SVGID_106_);fill:#F09D74;}
	.st54{clip-path:url(#SVGID_108_);fill:#F09E73;}
	.st55{clip-path:url(#SVGID_110_);fill:#F09F73;}
	.st56{clip-path:url(#SVGID_112_);fill:#F1A172;}
	.st57{clip-path:url(#SVGID_114_);fill:#F1A272;}
	.st58{clip-path:url(#SVGID_116_);fill:#F1A371;}
	.st59{clip-path:url(#SVGID_118_);fill:#F1A471;}
	.st60{clip-path:url(#SVGID_120_);fill:#F1A570;}
	.st61{clip-path:url(#SVGID_122_);fill:#F1A670;}
	.st62{clip-path:url(#SVGID_124_);fill:#F1A76F;}
	.st63{clip-path:url(#SVGID_126_);fill:#F1A86F;}
	.st64{clip-path:url(#SVGID_128_);fill:#F1A96E;}
	.st65{clip-path:url(#SVGID_130_);fill:#F1AA6E;}
	.st66{clip-path:url(#SVGID_132_);fill:#F2AB6D;}
	.st67{clip-path:url(#SVGID_134_);fill:#F2AC6D;}
	.st68{clip-path:url(#SVGID_136_);fill:#F2AD6C;}
	.st69{clip-path:url(#SVGID_138_);fill:#F2AE6C;}
	.st70{clip-path:url(#SVGID_140_);fill:#F2AF6B;}
	.st71{clip-path:url(#SVGID_142_);fill:#F2AF6B;}
	.st72{clip-path:url(#SVGID_144_);fill:#F2B06B;}
	.st73{clip-path:url(#SVGID_146_);fill:#F2B16A;}
	.st74{clip-path:url(#SVGID_148_);fill:#F2B26A;}
	.st75{clip-path:url(#SVGID_150_);fill:#F3B369;}
	.st76{clip-path:url(#SVGID_152_);fill:#F3B469;}
	.st77{clip-path:url(#SVGID_154_);fill:#F3B568;}
	.st78{clip-path:url(#SVGID_156_);fill:#F3B668;}
	.st79{clip-path:url(#SVGID_158_);fill:#F3B767;}
	.st80{clip-path:url(#SVGID_160_);fill:#F3B867;}
	.st81{clip-path:url(#SVGID_162_);fill:#F3B966;}
	.st82{clip-path:url(#SVGID_164_);fill:#F3BA66;}
	.st83{clip-path:url(#SVGID_166_);fill:#F4BB65;}
	.st84{clip-path:url(#SVGID_168_);fill:#F4BC65;}
	.st85{clip-path:url(#SVGID_170_);fill:#F4BD64;}
	.st86{clip-path:url(#SVGID_172_);fill:#F4BF64;}
	.st87{clip-path:url(#SVGID_174_);fill:#F4C063;}
	.st88{clip-path:url(#SVGID_176_);fill:#F4C163;}
	.st89{clip-path:url(#SVGID_178_);fill:#F4C262;}
	.st90{clip-path:url(#SVGID_180_);fill:#F5C362;}
	.st91{clip-path:url(#SVGID_182_);fill:#F5C461;}
	.st92{clip-path:url(#SVGID_184_);fill:#F5C561;}
	.st93{clip-path:url(#SVGID_186_);fill:#F5C660;}
	.st94{clip-path:url(#SVGID_188_);fill:#F5C760;}
	.st95{clip-path:url(#SVGID_190_);fill:#F5C85F;}
	.st96{clip-path:url(#SVGID_192_);fill:#F5C95F;}
	.st97{clip-path:url(#SVGID_194_);fill:#F5CA5E;}
	.st98{clip-path:url(#SVGID_196_);fill:#F6CB5E;}
	.st99{clip-path:url(#SVGID_198_);fill:#F6CC5D;}
	.st100{clip-path:url(#SVGID_200_);fill:#F6CD5D;}
	.st101{clip-path:url(#SVGID_202_);fill:#F6CE5C;}
	.st102{enable-background:new    ;}
	.st103{fill:#FBFBFB;}
</style>
<g id="pg2_titleStep3" transform="translate(-1403 -1713.924)">
	<g id="Repeat_Grid_4_2_" transform="translate(471.187 1497.397)">
		<g transform="translate(-359.187 -1445.397)">
			<circle id="Ellipse_846-157_2_" class="st0" cx="1331.9" cy="1667.2" r="1"/>
		</g>
		<g transform="translate(-349.187 -1445.397)">
			<circle id="Ellipse_846-158_2_" class="st0" cx="1331.9" cy="1667.2" r="1"/>
		</g>
		<g transform="translate(-339.187 -1445.397)">
			<circle id="Ellipse_846-159_2_" class="st0" cx="1331.9" cy="1667.2" r="1"/>
		</g>
		<g transform="translate(-329.187 -1445.397)">
			<circle id="Ellipse_846-160_2_" class="st0" cx="1331.9" cy="1667.2" r="1"/>
		</g>
		<g transform="translate(-319.187 -1445.397)">
			<circle id="Ellipse_846-161_2_" class="st0" cx="1331.9" cy="1667.2" r="1"/>
		</g>
		<g transform="translate(-369.187 -1435.397)">
			<circle id="Ellipse_846-185_2_" class="st0" cx="1331.9" cy="1667.2" r="1"/>
		</g>
		<g transform="translate(-359.187 -1435.397)">
			<circle id="Ellipse_846-186_2_" class="st0" cx="1331.9" cy="1667.2" r="1"/>
		</g>
		<g transform="translate(-349.187 -1435.397)">
			<circle id="Ellipse_846-187_2_" class="st0" cx="1331.9" cy="1667.2" r="1"/>
		</g>
		<g transform="translate(-339.187 -1435.397)">
			<circle id="Ellipse_846-188_2_" class="st0" cx="1331.9" cy="1667.2" r="1"/>
		</g>
		<g transform="translate(-329.187 -1435.397)">
			<circle id="Ellipse_846-189_2_" class="st0" cx="1331.9" cy="1667.2" r="1"/>
		</g>
		<g transform="translate(-319.187 -1435.397)">
			<circle id="Ellipse_846-190_2_" class="st0" cx="1331.9" cy="1667.2" r="1"/>
		</g>
		<g transform="translate(-309.187 -1435.397)">
			<circle id="Ellipse_846-191_2_" class="st0" cx="1331.9" cy="1667.2" r="1"/>
		</g>
		<g transform="translate(-379.187 -1425.397)">
			<circle id="Ellipse_846-213_2_" class="st0" cx="1331.9" cy="1667.2" r="1"/>
		</g>
		<g transform="translate(-369.187 -1425.397)">
			<circle id="Ellipse_846-214_2_" class="st0" cx="1331.9" cy="1667.2" r="1"/>
		</g>
		<g transform="translate(-309.187 -1425.397)">
			<circle id="Ellipse_846-220_2_" class="st0" cx="1331.9" cy="1667.2" r="1"/>
		</g>
		<g transform="translate(-299.187 -1425.397)">
			<circle id="Ellipse_846-221_2_" class="st0" cx="1331.9" cy="1667.2" r="1"/>
		</g>
		<g transform="translate(-389.187 -1415.397)">
			<circle id="Ellipse_846-241_2_" class="st0" cx="1331.9" cy="1667.2" r="1"/>
		</g>
		<g transform="translate(-379.187 -1415.397)">
			<circle id="Ellipse_846-242_2_" class="st0" cx="1331.9" cy="1667.2" r="1"/>
		</g>
		<g transform="translate(-299.187 -1415.397)">
			<circle id="Ellipse_846-250_2_" class="st0" cx="1331.9" cy="1667.2" r="1"/>
		</g>
		<g transform="translate(-289.187 -1415.397)">
			<circle id="Ellipse_846-251_2_" class="st0" cx="1331.9" cy="1667.2" r="1"/>
		</g>
		<g transform="translate(-389.187 -1405.397)">
			<circle id="Ellipse_846-270_2_" class="st0" cx="1331.9" cy="1667.2" r="1"/>
		</g>
		<g transform="translate(-379.187 -1405.397)">
			<circle id="Ellipse_846-271_2_" class="st0" cx="1331.9" cy="1667.2" r="1"/>
		</g>
		<g transform="translate(-299.187 -1405.397)">
			<circle id="Ellipse_846-279_2_" class="st0" cx="1331.9" cy="1667.2" r="1"/>
		</g>
		<g transform="translate(-289.187 -1405.397)">
			<circle id="Ellipse_846-280_2_" class="st0" cx="1331.9" cy="1667.2" r="1"/>
		</g>
		<g transform="translate(-389.187 -1395.397)">
			<circle id="Ellipse_846-299_2_" class="st0" cx="1331.9" cy="1667.2" r="1"/>
		</g>
		<g transform="translate(-289.187 -1395.397)">
			<circle id="Ellipse_846-309_2_" class="st0" cx="1331.9" cy="1667.2" r="1"/>
		</g>
		<g transform="translate(-389.187 -1385.397)">
			<circle id="Ellipse_846-328_2_" class="st0" cx="1331.9" cy="1667.2" r="1"/>
		</g>
		<g transform="translate(-289.187 -1385.397)">
			<circle id="Ellipse_846-338_2_" class="st0" cx="1331.9" cy="1667.2" r="1"/>
		</g>
		<g transform="translate(-389.187 -1375.397)">
			<circle id="Ellipse_846-357_2_" class="st0" cx="1331.9" cy="1667.2" r="1"/>
		</g>
		<g transform="translate(-379.187 -1375.397)">
			<circle id="Ellipse_846-358_2_" class="st0" cx="1331.9" cy="1667.2" r="1"/>
		</g>
		<g transform="translate(-299.187 -1375.397)">
			<circle id="Ellipse_846-366_2_" class="st0" cx="1331.9" cy="1667.2" r="1"/>
		</g>
		<g transform="translate(-289.187 -1375.397)">
			<circle id="Ellipse_846-367_2_" class="st0" cx="1331.9" cy="1667.2" r="1"/>
		</g>
		<g transform="translate(-389.187 -1365.397)">
			<circle id="Ellipse_846-386_2_" class="st0" cx="1331.9" cy="1667.2" r="1"/>
		</g>
		<g transform="translate(-379.187 -1365.397)">
			<circle id="Ellipse_846-387_2_" class="st0" cx="1331.9" cy="1667.2" r="1"/>
		</g>
		<g transform="translate(-299.187 -1365.397)">
			<circle id="Ellipse_846-395_2_" class="st0" cx="1331.9" cy="1667.2" r="1"/>
		</g>
		<g transform="translate(-289.187 -1365.397)">
			<circle id="Ellipse_846-396_2_" class="st0" cx="1331.9" cy="1667.2" r="1"/>
		</g>
		<g transform="translate(-379.187 -1355.397)">
			<circle id="Ellipse_846-416_2_" class="st0" cx="1331.9" cy="1667.2" r="1"/>
		</g>
		<g transform="translate(-369.187 -1355.397)">
			<circle id="Ellipse_846-417_2_" class="st0" cx="1331.9" cy="1667.2" r="1"/>
		</g>
		<g transform="translate(-309.187 -1355.397)">
			<circle id="Ellipse_846-423_2_" class="st0" cx="1331.9" cy="1667.2" r="1"/>
		</g>
		<g transform="translate(-299.187 -1355.397)">
			<circle id="Ellipse_846-424_2_" class="st0" cx="1331.9" cy="1667.2" r="1"/>
		</g>
		<g transform="translate(-369.187 -1345.397)">
			<circle id="Ellipse_846-446_2_" class="st0" cx="1331.9" cy="1667.2" r="1"/>
		</g>
		<g transform="translate(-359.187 -1345.397)">
			<circle id="Ellipse_846-447_2_" class="st0" cx="1331.9" cy="1667.2" r="1"/>
		</g>
		<g transform="translate(-349.187 -1345.397)">
			<circle id="Ellipse_846-448_2_" class="st0" cx="1331.9" cy="1667.2" r="1"/>
		</g>
		<g transform="translate(-339.187 -1345.397)">
			<circle id="Ellipse_846-449_2_" class="st0" cx="1331.9" cy="1667.2" r="1"/>
		</g>
		<g transform="translate(-329.187 -1345.397)">
			<circle id="Ellipse_846-450_2_" class="st0" cx="1331.9" cy="1667.2" r="1"/>
		</g>
		<g transform="translate(-319.187 -1345.397)">
			<circle id="Ellipse_846-451_2_" class="st0" cx="1331.9" cy="1667.2" r="1"/>
		</g>
		<g transform="translate(-309.187 -1345.397)">
			<circle id="Ellipse_846-452_2_" class="st0" cx="1331.9" cy="1667.2" r="1"/>
		</g>
		<g transform="translate(-359.187 -1335.397)">
			<circle id="Ellipse_846-476_2_" class="st0" cx="1331.9" cy="1667.2" r="1"/>
		</g>
		<g transform="translate(-349.187 -1335.397)">
			<circle id="Ellipse_846-477_2_" class="st0" cx="1331.9" cy="1667.2" r="1"/>
		</g>
		<g transform="translate(-339.187 -1335.397)">
			<circle id="Ellipse_846-478_2_" class="st0" cx="1331.9" cy="1667.2" r="1"/>
		</g>
		<g transform="translate(-329.187 -1335.397)">
			<circle id="Ellipse_846-479_2_" class="st0" cx="1331.9" cy="1667.2" r="1"/>
		</g>
		<g transform="translate(-319.187 -1335.397)">
			<circle id="Ellipse_846-480_2_" class="st0" cx="1331.9" cy="1667.2" r="1"/>
		</g>
	</g>
	<g id="Ellipse_860">
		<g>
			<g>
				<defs>
					<circle id="SVGID_1_" cx="1463.9" cy="1774.2" r="40"/>
				</defs>
				<clipPath id="SVGID_2_">
					<use xlink:href="#SVGID_1_"  style="overflow:visible;"/>
				</clipPath>
				<rect x="1423.9" y="1734.2" class="st1" width="80" height="80"/>
			</g>
			<g>
				<defs>
					<circle id="SVGID_3_" cx="1463.9" cy="1774.2" r="40"/>
				</defs>
				<clipPath id="SVGID_4_">
					<use xlink:href="#SVGID_3_"  style="overflow:visible;"/>
				</clipPath>
				<path class="st2" d="M1504.9,1813.7v-80.5h-49.8v-2.5c-5.3,3.6-10.3,7.7-14.8,12.2c-9.1,9.1-16.4,19.9-21.5,31.8h4.1v40.5h82
					L1504.9,1813.7L1504.9,1813.7z"/>
			</g>
			<g>
				<defs>
					<circle id="SVGID_5_" cx="1463.9" cy="1774.2" r="40"/>
				</defs>
				<clipPath id="SVGID_6_">
					<use xlink:href="#SVGID_5_"  style="overflow:visible;"/>
				</clipPath>
				<path class="st3" d="M1504.9,1813.7v-80.5h-39.3v-3.4c-2.7,1.5-5.3,3.1-7.9,4.8c-5.1,3.4-9.8,7.3-14.1,11.7
					c-8.6,8.6-15.6,18.9-20.5,30.3c-2.4,5.7-4.3,11.7-5.6,17.9h5.3v20.7h82L1504.9,1813.7L1504.9,1813.7z"/>
			</g>
			<g>
				<defs>
					<circle id="SVGID_7_" cx="1463.9" cy="1774.2" r="40"/>
				</defs>
				<clipPath id="SVGID_8_">
					<use xlink:href="#SVGID_7_"  style="overflow:visible;"/>
				</clipPath>
				<path class="st4" d="M1504.9,1813.7v-80.5h-29.1v-3.1c-10.9,4.6-20.6,11.2-28.8,19.4c-16.4,16.4-26.6,39.1-26.6,64.2h2.5v1.5h82
					V1813.7z"/>
			</g>
			<g>
				<defs>
					<circle id="SVGID_9_" cx="1463.9" cy="1774.2" r="40"/>
				</defs>
				<clipPath id="SVGID_10_">
					<use xlink:href="#SVGID_9_"  style="overflow:visible;"/>
				</clipPath>
				<path class="st5" d="M1504.9,1813.7v-80.5l6.2-5.5c-47.5,0-86,38.5-86,86c0,1.5,0,3,0.1,4.4v-2.9h79.7L1504.9,1813.7
					L1504.9,1813.7z"/>
			</g>
			<g>
				<defs>
					<circle id="SVGID_11_" cx="1463.9" cy="1774.2" r="40"/>
				</defs>
				<clipPath id="SVGID_12_">
					<use xlink:href="#SVGID_11_"  style="overflow:visible;"/>
				</clipPath>
				<path class="st6" d="M1504.9,1813.7v-80.5l6.2-0.8c-44.9,0-81.3,36.4-81.3,81.3c0,2.8,0.1,5.6,0.4,8.3v-6.8h74.7L1504.9,1813.7
					L1504.9,1813.7z"/>
			</g>
			<g>
				<defs>
					<circle id="SVGID_13_" cx="1463.9" cy="1774.2" r="40"/>
				</defs>
				<clipPath id="SVGID_14_">
					<use xlink:href="#SVGID_13_"  style="overflow:visible;"/>
				</clipPath>
				<path class="st7" d="M1504.9,1813.7v-79.8h6.2c-44,0-79.8,35.7-79.8,79.8c0,2.8,0.1,5.5,0.4,8.2v-6.7h73.1v-1.5H1504.9z"/>
			</g>
			<g>
				<defs>
					<circle id="SVGID_15_" cx="1463.9" cy="1774.2" r="40"/>
				</defs>
				<clipPath id="SVGID_16_">
					<use xlink:href="#SVGID_15_"  style="overflow:visible;"/>
				</clipPath>
				<path class="st8" d="M1504.9,1813.7v-78.2h6.2c-43.2,0-78.2,35-78.2,78.2c0,2.7,0.1,5.4,0.4,8v-6.5h71.6V1813.7z"/>
			</g>
			<g>
				<defs>
					<circle id="SVGID_17_" cx="1463.9" cy="1774.2" r="40"/>
				</defs>
				<clipPath id="SVGID_18_">
					<use xlink:href="#SVGID_17_"  style="overflow:visible;"/>
				</clipPath>
				<path class="st9" d="M1504.9,1813.7v-76.6h6.2c-42.3,0-76.6,34.3-76.6,76.6c0,2.6,0.1,5.3,0.4,7.8v-6.4h70V1813.7z"/>
			</g>
			<g>
				<defs>
					<circle id="SVGID_19_" cx="1463.9" cy="1774.2" r="40"/>
				</defs>
				<clipPath id="SVGID_20_">
					<use xlink:href="#SVGID_19_"  style="overflow:visible;"/>
				</clipPath>
				<path class="st10" d="M1504.9,1813.7v-75h6.2c-41.4,0-75,33.6-75,75c0,2.6,0.1,5.1,0.4,7.7v-6.2h68.4V1813.7z"/>
			</g>
			<g>
				<defs>
					<circle id="SVGID_21_" cx="1463.9" cy="1774.2" r="40"/>
				</defs>
				<clipPath id="SVGID_22_">
					<use xlink:href="#SVGID_21_"  style="overflow:visible;"/>
				</clipPath>
				<path class="st11" d="M1504.9,1813.7v-73.4h6.2c-40.6,0-73.4,32.9-73.4,73.4c0,2.5,0.1,5,0.4,7.5v-6h66.9L1504.9,1813.7
					L1504.9,1813.7z"/>
			</g>
			<g>
				<defs>
					<circle id="SVGID_23_" cx="1463.9" cy="1774.2" r="40"/>
				</defs>
				<clipPath id="SVGID_24_">
					<use xlink:href="#SVGID_23_"  style="overflow:visible;"/>
				</clipPath>
				<path class="st12" d="M1504.9,1813.7v-71.9h6.2c-39.7,0-71.9,32.2-71.9,71.9c0,2.5,0.1,4.9,0.4,7.3v-5.9h65.3V1813.7z"/>
			</g>
			<g>
				<defs>
					<circle id="SVGID_25_" cx="1463.9" cy="1774.2" r="40"/>
				</defs>
				<clipPath id="SVGID_26_">
					<use xlink:href="#SVGID_25_"  style="overflow:visible;"/>
				</clipPath>
				<path class="st13" d="M1504.9,1813.7v-70.3h6.2c-38.8,0-70.3,31.5-70.3,70.3c0,2.4,0.1,4.8,0.4,7.2v-5.7h63.7L1504.9,1813.7
					L1504.9,1813.7z"/>
			</g>
			<g>
				<defs>
					<circle id="SVGID_27_" cx="1463.9" cy="1774.2" r="40"/>
				</defs>
				<clipPath id="SVGID_28_">
					<use xlink:href="#SVGID_27_"  style="overflow:visible;"/>
				</clipPath>
				<path class="st14" d="M1504.9,1813.7V1745h6.2c-37.9,0-68.7,30.8-68.7,68.7c0,2.4,0.1,4.7,0.4,7v-5.5h62.1V1813.7z"/>
			</g>
			<g>
				<defs>
					<circle id="SVGID_29_" cx="1463.9" cy="1774.2" r="40"/>
				</defs>
				<clipPath id="SVGID_30_">
					<use xlink:href="#SVGID_29_"  style="overflow:visible;"/>
				</clipPath>
				<path class="st15" d="M1504.9,1813.7v-67.1h6.2c-37.1,0-67.1,30-67.1,67.1c0,2.3,0.1,4.6,0.3,6.9v-5.4h60.6V1813.7z"/>
			</g>
			<g>
				<defs>
					<circle id="SVGID_31_" cx="1463.9" cy="1774.2" r="40"/>
				</defs>
				<clipPath id="SVGID_32_">
					<use xlink:href="#SVGID_31_"  style="overflow:visible;"/>
				</clipPath>
				<path class="st16" d="M1504.9,1813.7v-65.5h6.2c-36.2,0-65.5,29.3-65.5,65.5c0,2.3,0.1,4.5,0.3,6.7v-5.2h59V1813.7z"/>
			</g>
			<g>
				<defs>
					<circle id="SVGID_33_" cx="1463.9" cy="1774.2" r="40"/>
				</defs>
				<clipPath id="SVGID_34_">
					<use xlink:href="#SVGID_33_"  style="overflow:visible;"/>
				</clipPath>
				<path class="st17" d="M1504.9,1813.7v-64h6.2c-35.3,0-64,28.6-64,64c0,2.2,0.1,4.4,0.3,6.5v-5.1h57.4L1504.9,1813.7
					L1504.9,1813.7z"/>
			</g>
			<g>
				<defs>
					<circle id="SVGID_35_" cx="1463.9" cy="1774.2" r="40"/>
				</defs>
				<clipPath id="SVGID_36_">
					<use xlink:href="#SVGID_35_"  style="overflow:visible;"/>
				</clipPath>
				<path class="st18" d="M1504.9,1813.7v-62.4h6.2c-34.4,0-62.4,27.9-62.4,62.4c0,2.2,0.1,4.3,0.3,6.4v-4.9h55.9V1813.7z"/>
			</g>
			<g>
				<defs>
					<circle id="SVGID_37_" cx="1463.9" cy="1774.2" r="40"/>
				</defs>
				<clipPath id="SVGID_38_">
					<use xlink:href="#SVGID_37_"  style="overflow:visible;"/>
				</clipPath>
				<path class="st19" d="M1504.9,1813.7v-60.8h6.2c-33.6,0-60.8,27.2-60.8,60.8c0,2.1,0.1,4.2,0.3,6.2v-4.7h54.3V1813.7z"/>
			</g>
			<g>
				<defs>
					<circle id="SVGID_39_" cx="1463.9" cy="1774.2" r="40"/>
				</defs>
				<clipPath id="SVGID_40_">
					<use xlink:href="#SVGID_39_"  style="overflow:visible;"/>
				</clipPath>
				<path class="st20" d="M1504.9,1813.7v-59.8h6.2c-33,0-59.8,26.8-59.8,59.8c0,2.1,0.1,4.1,0.3,6.1v-4.6h53.3V1813.7z"/>
			</g>
			<g>
				<defs>
					<circle id="SVGID_41_" cx="1463.9" cy="1774.2" r="40"/>
				</defs>
				<clipPath id="SVGID_42_">
					<use xlink:href="#SVGID_41_"  style="overflow:visible;"/>
				</clipPath>
				<path class="st21" d="M1504.9,1813.7v-58.9h6.2c-32.5,0-58.9,26.4-58.9,58.9c0,2,0.1,4,0.3,6v-4.5h52.4V1813.7z"/>
			</g>
			<g>
				<defs>
					<circle id="SVGID_43_" cx="1463.9" cy="1774.2" r="40"/>
				</defs>
				<clipPath id="SVGID_44_">
					<use xlink:href="#SVGID_43_"  style="overflow:visible;"/>
				</clipPath>
				<path class="st22" d="M1504.9,1813.7v-57.9h6.2c-32,0-57.9,25.9-57.9,57.9c0,2,0.1,4,0.3,5.9v-4.4h51.4V1813.7z"/>
			</g>
			<g>
				<defs>
					<circle id="SVGID_45_" cx="1463.9" cy="1774.2" r="40"/>
				</defs>
				<clipPath id="SVGID_46_">
					<use xlink:href="#SVGID_45_"  style="overflow:visible;"/>
				</clipPath>
				<path class="st23" d="M1504.9,1813.7v-56.9h6.2c-31.4,0-56.9,25.5-56.9,56.9c0,2,0.1,3.9,0.3,5.8v-4.3h50.4V1813.7z"/>
			</g>
			<g>
				<defs>
					<circle id="SVGID_47_" cx="1463.9" cy="1774.2" r="40"/>
				</defs>
				<clipPath id="SVGID_48_">
					<use xlink:href="#SVGID_47_"  style="overflow:visible;"/>
				</clipPath>
				<path class="st24" d="M1504.9,1813.7v-55.9h6.2c-30.9,0-55.9,25-55.9,55.9c0,1.9,0.1,3.8,0.3,5.7v-4.2h49.5L1504.9,1813.7
					L1504.9,1813.7z"/>
			</g>
			<g>
				<defs>
					<circle id="SVGID_49_" cx="1463.9" cy="1774.2" r="40"/>
				</defs>
				<clipPath id="SVGID_50_">
					<use xlink:href="#SVGID_49_"  style="overflow:visible;"/>
				</clipPath>
				<path class="st25" d="M1504.9,1813.7v-55h6.2c-30.4,0-55,24.6-55,55c0,1.9,0.1,3.8,0.3,5.6v-4.1h48.5V1813.7z"/>
			</g>
			<g>
				<defs>
					<circle id="SVGID_51_" cx="1463.9" cy="1774.2" r="40"/>
				</defs>
				<clipPath id="SVGID_52_">
					<use xlink:href="#SVGID_51_"  style="overflow:visible;"/>
				</clipPath>
				<path class="st26" d="M1504.9,1813.7v-54h6.2c-29.8,0-54,24.2-54,54c0,1.9,0.1,3.7,0.3,5.5v-4h47.5V1813.7z"/>
			</g>
			<g>
				<defs>
					<circle id="SVGID_53_" cx="1463.9" cy="1774.2" r="40"/>
				</defs>
				<clipPath id="SVGID_54_">
					<use xlink:href="#SVGID_53_"  style="overflow:visible;"/>
				</clipPath>
				<path class="st27" d="M1504.9,1813.7v-53h6.2c-29.3,0-53,23.7-53,53c0,1.8,0.1,3.6,0.3,5.4v-3.9h46.6L1504.9,1813.7
					L1504.9,1813.7z"/>
			</g>
			<g>
				<defs>
					<circle id="SVGID_55_" cx="1463.9" cy="1774.2" r="40"/>
				</defs>
				<clipPath id="SVGID_56_">
					<use xlink:href="#SVGID_55_"  style="overflow:visible;"/>
				</clipPath>
				<path class="st28" d="M1504.9,1813.7v-52.1h6.2c-28.8,0-52.1,23.3-52.1,52.1c0,1.8,0.1,3.6,0.3,5.3v-3.8h45.6V1813.7z"/>
			</g>
			<g>
				<defs>
					<circle id="SVGID_57_" cx="1463.9" cy="1774.2" r="40"/>
				</defs>
				<clipPath id="SVGID_58_">
					<use xlink:href="#SVGID_57_"  style="overflow:visible;"/>
				</clipPath>
				<path class="st29" d="M1504.9,1813.7v-51.1h6.2c-28.2,0-51.1,22.9-51.1,51.1c0,1.8,0.1,3.5,0.3,5.2v-3.7h44.6V1813.7z"/>
			</g>
			<g>
				<defs>
					<circle id="SVGID_59_" cx="1463.9" cy="1774.2" r="40"/>
				</defs>
				<clipPath id="SVGID_60_">
					<use xlink:href="#SVGID_59_"  style="overflow:visible;"/>
				</clipPath>
				<path class="st30" d="M1504.9,1813.7v-50.1h6.2c-27.7,0-50.1,22.4-50.1,50.1c0,1.7,0.1,3.4,0.3,5.1v-3.6h43.7L1504.9,1813.7
					L1504.9,1813.7z"/>
			</g>
			<g>
				<defs>
					<circle id="SVGID_61_" cx="1463.9" cy="1774.2" r="40"/>
				</defs>
				<clipPath id="SVGID_62_">
					<use xlink:href="#SVGID_61_"  style="overflow:visible;"/>
				</clipPath>
				<path class="st31" d="M1504.9,1813.7v-49.2h6.2c-27.2,0-49.2,22-49.2,49.2c0,1.7,0.1,3.4,0.3,5v-3.5h42.7V1813.7z"/>
			</g>
			<g>
				<defs>
					<circle id="SVGID_63_" cx="1463.9" cy="1774.2" r="40"/>
				</defs>
				<clipPath id="SVGID_64_">
					<use xlink:href="#SVGID_63_"  style="overflow:visible;"/>
				</clipPath>
				<path class="st32" d="M1504.9,1813.7v-48.2h6.2c-26.6,0-48.2,21.6-48.2,48.2c0,1.7,0.1,3.3,0.2,4.9v-3.4h41.7v-1.5H1504.9z"/>
			</g>
			<g>
				<defs>
					<circle id="SVGID_65_" cx="1463.9" cy="1774.2" r="40"/>
				</defs>
				<clipPath id="SVGID_66_">
					<use xlink:href="#SVGID_65_"  style="overflow:visible;"/>
				</clipPath>
				<path class="st33" d="M1504.9,1813.7v-47.2h6.2c-26.1,0-47.2,21.1-47.2,47.2c0,1.6,0.1,3.2,0.2,4.8v-3.3h40.8V1813.7z"/>
			</g>
			<g>
				<defs>
					<circle id="SVGID_67_" cx="1463.9" cy="1774.2" r="40"/>
				</defs>
				<clipPath id="SVGID_68_">
					<use xlink:href="#SVGID_67_"  style="overflow:visible;"/>
				</clipPath>
				<path class="st34" d="M1504.9,1813.7v-46.3h6.2c-25.5,0-46.3,20.7-46.3,46.3c0,1.6,0.1,3.2,0.2,4.7v-3.2h39.8v-1.5H1504.9z"/>
			</g>
			<g>
				<defs>
					<circle id="SVGID_69_" cx="1463.9" cy="1774.2" r="40"/>
				</defs>
				<clipPath id="SVGID_70_">
					<use xlink:href="#SVGID_69_"  style="overflow:visible;"/>
				</clipPath>
				<path class="st35" d="M1504.9,1813.7v-45.3h6.2c-25,0-45.3,20.3-45.3,45.3c0,1.6,0.1,3.1,0.2,4.6v-3.1h38.8v-1.5H1504.9z"/>
			</g>
			<g>
				<defs>
					<circle id="SVGID_71_" cx="1463.9" cy="1774.2" r="40"/>
				</defs>
				<clipPath id="SVGID_72_">
					<use xlink:href="#SVGID_71_"  style="overflow:visible;"/>
				</clipPath>
				<path class="st36" d="M1504.9,1813.7v-44.3h6.2c-24.5,0-44.3,19.8-44.3,44.3c0,1.5,0.1,3,0.2,4.5v-3.1h37.9L1504.9,1813.7
					L1504.9,1813.7z"/>
			</g>
			<g>
				<defs>
					<circle id="SVGID_73_" cx="1463.9" cy="1774.2" r="40"/>
				</defs>
				<clipPath id="SVGID_74_">
					<use xlink:href="#SVGID_73_"  style="overflow:visible;"/>
				</clipPath>
				<path class="st37" d="M1504.9,1813.7v-43.3h6.2c-23.9,0-43.3,19.4-43.3,43.3c0,1.5,0.1,3,0.2,4.4v-3h36.9L1504.9,1813.7
					L1504.9,1813.7z"/>
			</g>
			<g>
				<defs>
					<circle id="SVGID_75_" cx="1463.9" cy="1774.2" r="40"/>
				</defs>
				<clipPath id="SVGID_76_">
					<use xlink:href="#SVGID_75_"  style="overflow:visible;"/>
				</clipPath>
				<path class="st38" d="M1504.9,1813.7v-42.4h6.2c-23.4,0-42.4,19-42.4,42.4c0,1.5,0.1,2.9,0.2,4.3v-2.9h36L1504.9,1813.7
					L1504.9,1813.7z"/>
			</g>
			<g>
				<defs>
					<circle id="SVGID_77_" cx="1463.9" cy="1774.2" r="40"/>
				</defs>
				<clipPath id="SVGID_78_">
					<use xlink:href="#SVGID_77_"  style="overflow:visible;"/>
				</clipPath>
				<path class="st39" d="M1504.9,1813.7v-41.4h6.2c-22.9,0-41.4,18.5-41.4,41.4c0,2.9,0.3,5.6,0.8,8.3v-6.9h34.4V1813.7z"/>
			</g>
			<g>
				<defs>
					<circle id="SVGID_79_" cx="1463.9" cy="1774.2" r="40"/>
				</defs>
				<clipPath id="SVGID_80_">
					<use xlink:href="#SVGID_79_"  style="overflow:visible;"/>
				</clipPath>
				<path class="st40" d="M1504.9,1813.7v-40.4h6.2c-22.3,0-40.4,18.1-40.4,40.4c0,2.8,0.3,5.5,0.8,8.1v-6.7h33.4V1813.7z"/>
			</g>
			<g>
				<defs>
					<circle id="SVGID_81_" cx="1463.9" cy="1774.2" r="40"/>
				</defs>
				<clipPath id="SVGID_82_">
					<use xlink:href="#SVGID_81_"  style="overflow:visible;"/>
				</clipPath>
				<path class="st41" d="M1504.9,1813.7v-39.5h6.2c-21.8,0-39.5,17.7-39.5,39.5c0,2.7,0.3,5.4,0.8,8v-6.5h32.5V1813.7z"/>
			</g>
			<g>
				<defs>
					<circle id="SVGID_83_" cx="1463.9" cy="1774.2" r="40"/>
				</defs>
				<clipPath id="SVGID_84_">
					<use xlink:href="#SVGID_83_"  style="overflow:visible;"/>
				</clipPath>
				<path class="st42" d="M1504.9,1813.7V1775h6.2c-21.4,0-38.7,17.3-38.7,38.7c0,2.7,0.3,5.3,0.8,7.8v-6.3h31.8v-1.5H1504.9z"/>
			</g>
			<g>
				<defs>
					<circle id="SVGID_85_" cx="1463.9" cy="1774.2" r="40"/>
				</defs>
				<clipPath id="SVGID_86_">
					<use xlink:href="#SVGID_85_"  style="overflow:visible;"/>
				</clipPath>
				<path class="st43" d="M1504.9,1813.7v-38h6.2c-21,0-38,17-38,38c0,2.6,0.3,5.2,0.8,7.7v-6.2h31V1813.7z"/>
			</g>
			<g>
				<defs>
					<circle id="SVGID_87_" cx="1463.9" cy="1774.2" r="40"/>
				</defs>
				<clipPath id="SVGID_88_">
					<use xlink:href="#SVGID_87_"  style="overflow:visible;"/>
				</clipPath>
				<path class="st44" d="M1504.9,1813.7v-37.3h6.2c-20.6,0-37.3,16.7-37.3,37.3c0,2.6,0.3,5.1,0.8,7.5v-6h30.3V1813.7z"/>
			</g>
			<g>
				<defs>
					<circle id="SVGID_89_" cx="1463.9" cy="1774.2" r="40"/>
				</defs>
				<clipPath id="SVGID_90_">
					<use xlink:href="#SVGID_89_"  style="overflow:visible;"/>
				</clipPath>
				<path class="st45" d="M1504.9,1813.7v-36.6h6.2c-20.2,0-36.6,16.4-36.6,36.6c0,2.5,0.3,5,0.7,7.4v-5.9h29.6v-1.5H1504.9z"/>
			</g>
			<g>
				<defs>
					<circle id="SVGID_91_" cx="1463.9" cy="1774.2" r="40"/>
				</defs>
				<clipPath id="SVGID_92_">
					<use xlink:href="#SVGID_91_"  style="overflow:visible;"/>
				</clipPath>
				<path class="st46" d="M1504.9,1813.7v-35.8h6.2c-19.8,0-35.8,16-35.8,35.8c0,2.5,0.3,4.9,0.7,7.2v-5.7h28.9L1504.9,1813.7
					L1504.9,1813.7z"/>
			</g>
			<g>
				<defs>
					<circle id="SVGID_93_" cx="1463.9" cy="1774.2" r="40"/>
				</defs>
				<clipPath id="SVGID_94_">
					<use xlink:href="#SVGID_93_"  style="overflow:visible;"/>
				</clipPath>
				<path class="st47" d="M1504.9,1813.7v-35.1h6.2c-19.4,0-35.1,15.7-35.1,35.1c0,2.4,0.2,4.8,0.7,7.1v-5.6h28.2L1504.9,1813.7
					L1504.9,1813.7z"/>
			</g>
			<g>
				<defs>
					<circle id="SVGID_95_" cx="1463.9" cy="1774.2" r="40"/>
				</defs>
				<clipPath id="SVGID_96_">
					<use xlink:href="#SVGID_95_"  style="overflow:visible;"/>
				</clipPath>
				<path class="st48" d="M1504.9,1813.7v-34.4h6.2c-19,0-34.4,15.4-34.4,34.4c0,2.4,0.2,4.7,0.7,6.9v-5.5h27.5L1504.9,1813.7
					L1504.9,1813.7z"/>
			</g>
			<g>
				<defs>
					<circle id="SVGID_97_" cx="1463.9" cy="1774.2" r="40"/>
				</defs>
				<clipPath id="SVGID_98_">
					<use xlink:href="#SVGID_97_"  style="overflow:visible;"/>
				</clipPath>
				<path class="st49" d="M1504.9,1813.7V1780h6.2c-18.6,0-33.7,15.1-33.7,33.7c0,2.3,0.2,4.6,0.7,6.8v-5.3h26.8V1813.7z"/>
			</g>
			<g>
				<defs>
					<circle id="SVGID_99_" cx="1463.9" cy="1774.2" r="40"/>
				</defs>
				<clipPath id="SVGID_100_">
					<use xlink:href="#SVGID_99_"  style="overflow:visible;"/>
				</clipPath>
				<path class="st50" d="M1504.9,1813.7v-32.9h6.2c-18.2,0-32.9,14.7-32.9,32.9c0,2.3,0.2,4.5,0.7,6.6v-5.2h26.1L1504.9,1813.7
					L1504.9,1813.7z"/>
			</g>
			<g>
				<defs>
					<circle id="SVGID_101_" cx="1463.9" cy="1774.2" r="40"/>
				</defs>
				<clipPath id="SVGID_102_">
					<use xlink:href="#SVGID_101_"  style="overflow:visible;"/>
				</clipPath>
				<path class="st51" d="M1504.9,1813.7v-32.2h6.2c-17.8,0-32.2,14.4-32.2,32.2c0,2.2,0.2,4.4,0.7,6.5v-5h25.4L1504.9,1813.7
					L1504.9,1813.7z"/>
			</g>
			<g>
				<defs>
					<circle id="SVGID_103_" cx="1463.9" cy="1774.2" r="40"/>
				</defs>
				<clipPath id="SVGID_104_">
					<use xlink:href="#SVGID_103_"  style="overflow:visible;"/>
				</clipPath>
				<path class="st52" d="M1504.9,1813.7v-31.5h6.2c-17.4,0-31.5,14.1-31.5,31.5c0,2.2,0.2,4.3,0.6,6.3v-4.9h24.7L1504.9,1813.7
					L1504.9,1813.7z"/>
			</g>
			<g>
				<defs>
					<circle id="SVGID_105_" cx="1463.9" cy="1774.2" r="40"/>
				</defs>
				<clipPath id="SVGID_106_">
					<use xlink:href="#SVGID_105_"  style="overflow:visible;"/>
				</clipPath>
				<path class="st53" d="M1504.9,1813.7v-30.8h6.2c-17,0-30.8,13.8-30.8,30.8c0,2.1,0.2,4.2,0.6,6.2v-4.7h23.9v-1.5H1504.9z"/>
			</g>
			<g>
				<defs>
					<circle id="SVGID_107_" cx="1463.9" cy="1774.2" r="40"/>
				</defs>
				<clipPath id="SVGID_108_">
					<use xlink:href="#SVGID_107_"  style="overflow:visible;"/>
				</clipPath>
				<path class="st54" d="M1504.9,1813.7v-30h6.2c-16.6,0-30,13.5-30,30c0,2.1,0.2,4.1,0.6,6.1v-4.6h23.2L1504.9,1813.7
					L1504.9,1813.7z"/>
			</g>
			<g>
				<defs>
					<circle id="SVGID_109_" cx="1463.9" cy="1774.2" r="40"/>
				</defs>
				<clipPath id="SVGID_110_">
					<use xlink:href="#SVGID_109_"  style="overflow:visible;"/>
				</clipPath>
				<path class="st55" d="M1504.9,1813.7v-29.3h6.2c-16.2,0-29.3,13.1-29.3,29.3c0,2,0.2,4,0.6,5.9v-4.4h22.5L1504.9,1813.7
					L1504.9,1813.7z"/>
			</g>
			<g>
				<defs>
					<circle id="SVGID_111_" cx="1463.9" cy="1774.2" r="40"/>
				</defs>
				<clipPath id="SVGID_112_">
					<use xlink:href="#SVGID_111_"  style="overflow:visible;"/>
				</clipPath>
				<path class="st56" d="M1504.9,1813.7v-28.6h6.2c-15.8,0-28.6,12.8-28.6,28.6c0,2,0.2,3.9,0.6,5.8v-4.3h21.8V1813.7z"/>
			</g>
			<g>
				<defs>
					<circle id="SVGID_113_" cx="1463.9" cy="1774.2" r="40"/>
				</defs>
				<clipPath id="SVGID_114_">
					<use xlink:href="#SVGID_113_"  style="overflow:visible;"/>
				</clipPath>
				<path class="st57" d="M1504.9,1813.7v-27.9h6.2c-15.4,0-27.9,12.5-27.9,27.9c0,1.9,0.2,3.8,0.6,5.6v-4.1h21.1L1504.9,1813.7
					L1504.9,1813.7z"/>
			</g>
			<g>
				<defs>
					<circle id="SVGID_115_" cx="1463.9" cy="1774.2" r="40"/>
				</defs>
				<clipPath id="SVGID_116_">
					<use xlink:href="#SVGID_115_"  style="overflow:visible;"/>
				</clipPath>
				<path class="st58" d="M1504.9,1813.7v-27.1h6.2c-15,0-27.1,12.2-27.1,27.1c0,1.9,0.2,3.7,0.6,5.5v-4h20.4L1504.9,1813.7
					L1504.9,1813.7z"/>
			</g>
			<g>
				<defs>
					<circle id="SVGID_117_" cx="1463.9" cy="1774.2" r="40"/>
				</defs>
				<clipPath id="SVGID_118_">
					<use xlink:href="#SVGID_117_"  style="overflow:visible;"/>
				</clipPath>
				<path class="st59" d="M1504.9,1813.7v-26.4h6.2c-14.6,0-26.4,11.8-26.4,26.4c0,1.8,0.2,3.6,0.5,5.3v-3.8h19.7L1504.9,1813.7
					L1504.9,1813.7z"/>
			</g>
			<g>
				<defs>
					<circle id="SVGID_119_" cx="1463.9" cy="1774.2" r="40"/>
				</defs>
				<clipPath id="SVGID_120_">
					<use xlink:href="#SVGID_119_"  style="overflow:visible;"/>
				</clipPath>
				<path class="st60" d="M1504.9,1813.7V1788h6.2c-14.2,0-25.7,11.5-25.7,25.7c0,1.8,0.2,3.5,0.5,5.2v-3.7h19V1813.7z"/>
			</g>
			<g>
				<defs>
					<circle id="SVGID_121_" cx="1463.9" cy="1774.2" r="40"/>
				</defs>
				<clipPath id="SVGID_122_">
					<use xlink:href="#SVGID_121_"  style="overflow:visible;"/>
				</clipPath>
				<path class="st61" d="M1504.9,1813.7v-25h6.2c-13.8,0-25,11.2-25,25c0,1.7,0.2,3.4,0.5,5v-3.6h18.3V1813.7z"/>
			</g>
			<g>
				<defs>
					<circle id="SVGID_123_" cx="1463.9" cy="1774.2" r="40"/>
				</defs>
				<clipPath id="SVGID_124_">
					<use xlink:href="#SVGID_123_"  style="overflow:visible;"/>
				</clipPath>
				<path class="st62" d="M1504.9,1813.7v-24.2h6.2c-13.4,0-24.2,10.9-24.2,24.2c0,1.7,0.2,3.3,0.5,4.9v-3.4h17.6L1504.9,1813.7
					L1504.9,1813.7z"/>
			</g>
			<g>
				<defs>
					<circle id="SVGID_125_" cx="1463.9" cy="1774.2" r="40"/>
				</defs>
				<clipPath id="SVGID_126_">
					<use xlink:href="#SVGID_125_"  style="overflow:visible;"/>
				</clipPath>
				<path class="st63" d="M1504.9,1813.7v-23.5h6.2c-13,0-23.5,10.5-23.5,23.5c0,1.6,0.2,3.2,0.5,4.7v-3.3h16.8V1813.7z"/>
			</g>
			<g>
				<defs>
					<circle id="SVGID_127_" cx="1463.9" cy="1774.2" r="40"/>
				</defs>
				<clipPath id="SVGID_128_">
					<use xlink:href="#SVGID_127_"  style="overflow:visible;"/>
				</clipPath>
				<path class="st64" d="M1504.9,1813.7v-22.8h6.2c-12.6,0-22.8,10.2-22.8,22.8c0,1.6,0.2,3.1,0.5,4.6v-3.1h16.1L1504.9,1813.7
					L1504.9,1813.7z"/>
			</g>
			<g>
				<defs>
					<circle id="SVGID_129_" cx="1463.9" cy="1774.2" r="40"/>
				</defs>
				<clipPath id="SVGID_130_">
					<use xlink:href="#SVGID_129_"  style="overflow:visible;"/>
				</clipPath>
				<path class="st65" d="M1504.9,1813.7v-22.1h6.2c-12.2,0-22.1,9.9-22.1,22.1c0,1.5,0.2,3,0.4,4.4v-3h15.4L1504.9,1813.7
					L1504.9,1813.7z"/>
			</g>
			<g>
				<defs>
					<circle id="SVGID_131_" cx="1463.9" cy="1774.2" r="40"/>
				</defs>
				<clipPath id="SVGID_132_">
					<use xlink:href="#SVGID_131_"  style="overflow:visible;"/>
				</clipPath>
				<path class="st66" d="M1504.9,1813.7v-21.4h6.2c-11.8,0-21.4,9.6-21.4,21.4c0,2.9,0.6,5.8,1.7,8.3v-6.8h13.5L1504.9,1813.7
					L1504.9,1813.7z"/>
			</g>
			<g>
				<defs>
					<circle id="SVGID_133_" cx="1463.9" cy="1774.2" r="40"/>
				</defs>
				<clipPath id="SVGID_134_">
					<use xlink:href="#SVGID_133_"  style="overflow:visible;"/>
				</clipPath>
				<path class="st67" d="M1504.9,1813.7v-20.6h6.2c-11.4,0-20.6,9.2-20.6,20.6c0,2.8,0.6,5.6,1.6,8v-6.5h12.8V1813.7z"/>
			</g>
			<g>
				<defs>
					<circle id="SVGID_135_" cx="1463.9" cy="1774.2" r="40"/>
				</defs>
				<clipPath id="SVGID_136_">
					<use xlink:href="#SVGID_135_"  style="overflow:visible;"/>
				</clipPath>
				<path class="st68" d="M1504.9,1813.7v-19.9h6.2c-11,0-19.9,8.9-19.9,19.9c0,2.7,0.6,5.4,1.6,7.7v-6.3h12.1L1504.9,1813.7
					L1504.9,1813.7z"/>
			</g>
			<g>
				<defs>
					<circle id="SVGID_137_" cx="1463.9" cy="1774.2" r="40"/>
				</defs>
				<clipPath id="SVGID_138_">
					<use xlink:href="#SVGID_137_"  style="overflow:visible;"/>
				</clipPath>
				<path class="st69" d="M1504.9,1813.7v-19.2h6.2c-10.6,0-19.2,8.6-19.2,19.2c0,2.6,0.5,5.2,1.5,7.5v-6h11.5V1813.7z"/>
			</g>
			<g>
				<defs>
					<circle id="SVGID_139_" cx="1463.9" cy="1774.2" r="40"/>
				</defs>
				<clipPath id="SVGID_140_">
					<use xlink:href="#SVGID_139_"  style="overflow:visible;"/>
				</clipPath>
				<path class="st70" d="M1504.9,1813.7v-18.5h6.2c-10.2,0-18.5,8.3-18.5,18.5c0,2.5,0.5,5,1.5,7.2v-5.7h10.8V1813.7z"/>
			</g>
			<g>
				<defs>
					<circle id="SVGID_141_" cx="1463.9" cy="1774.2" r="40"/>
				</defs>
				<clipPath id="SVGID_142_">
					<use xlink:href="#SVGID_141_"  style="overflow:visible;"/>
				</clipPath>
				<path class="st71" d="M1504.9,1813.7V1796h6.2c-9.8,0-17.7,7.9-17.7,17.7c0,2.4,0.5,4.8,1.4,6.9v-5.4h10.1V1813.7z"/>
			</g>
			<g>
				<defs>
					<circle id="SVGID_143_" cx="1463.9" cy="1774.2" r="40"/>
				</defs>
				<clipPath id="SVGID_144_">
					<use xlink:href="#SVGID_143_"  style="overflow:visible;"/>
				</clipPath>
				<path class="st72" d="M1504.9,1813.7v-17.2h6.2c-9.5,0-17.2,7.7-17.2,17.2c0,2.4,0.5,4.6,1.3,6.7v-5.2h9.6L1504.9,1813.7
					L1504.9,1813.7z"/>
			</g>
			<g>
				<defs>
					<circle id="SVGID_145_" cx="1463.9" cy="1774.2" r="40"/>
				</defs>
				<clipPath id="SVGID_146_">
					<use xlink:href="#SVGID_145_"  style="overflow:visible;"/>
				</clipPath>
				<path class="st73" d="M1504.9,1813.7v-16.6h6.2c-9.2,0-16.6,7.4-16.6,16.6c0,2.3,0.5,4.5,1.3,6.5v-5h9.1V1813.7z"/>
			</g>
			<g>
				<defs>
					<circle id="SVGID_147_" cx="1463.9" cy="1774.2" r="40"/>
				</defs>
				<clipPath id="SVGID_148_">
					<use xlink:href="#SVGID_147_"  style="overflow:visible;"/>
				</clipPath>
				<path class="st74" d="M1504.9,1813.7v-16h6.2c-8.8,0-16,7.2-16,16c0,2.2,0.4,4.3,1.3,6.2v-4.8h8.6L1504.9,1813.7L1504.9,1813.7z
					"/>
			</g>
			<g>
				<defs>
					<circle id="SVGID_149_" cx="1463.9" cy="1774.2" r="40"/>
				</defs>
				<clipPath id="SVGID_150_">
					<use xlink:href="#SVGID_149_"  style="overflow:visible;"/>
				</clipPath>
				<path class="st75" d="M1504.9,1813.7v-15.4h6.2c-8.5,0-15.4,6.9-15.4,15.4c0,2.1,0.4,4.2,1.2,6v-4.5h8L1504.9,1813.7
					L1504.9,1813.7z"/>
			</g>
			<g>
				<defs>
					<circle id="SVGID_151_" cx="1463.9" cy="1774.2" r="40"/>
				</defs>
				<clipPath id="SVGID_152_">
					<use xlink:href="#SVGID_151_"  style="overflow:visible;"/>
				</clipPath>
				<path class="st76" d="M1504.9,1813.7v-14.9h6.2c-8.2,0-14.9,6.7-14.9,14.9c0,2.1,0.4,4,1.2,5.8v-4.3h7.5L1504.9,1813.7
					L1504.9,1813.7z"/>
			</g>
			<g>
				<defs>
					<circle id="SVGID_153_" cx="1463.9" cy="1774.2" r="40"/>
				</defs>
				<clipPath id="SVGID_154_">
					<use xlink:href="#SVGID_153_"  style="overflow:visible;"/>
				</clipPath>
				<path class="st77" d="M1504.9,1813.7v-14.3h6.2c-7.9,0-14.3,6.4-14.3,14.3c0,2,0.4,3.9,1.1,5.6v-4.1h7L1504.9,1813.7
					L1504.9,1813.7z"/>
			</g>
			<g>
				<defs>
					<circle id="SVGID_155_" cx="1463.9" cy="1774.2" r="40"/>
				</defs>
				<clipPath id="SVGID_156_">
					<use xlink:href="#SVGID_155_"  style="overflow:visible;"/>
				</clipPath>
				<path class="st78" d="M1504.9,1813.7V1800h6.2c-7.6,0-13.7,6.1-13.7,13.7c0,1.9,0.4,3.7,1.1,5.3v-3.9h6.4V1813.7z"/>
			</g>
			<g>
				<defs>
					<circle id="SVGID_157_" cx="1463.9" cy="1774.2" r="40"/>
				</defs>
				<clipPath id="SVGID_158_">
					<use xlink:href="#SVGID_157_"  style="overflow:visible;"/>
				</clipPath>
				<path class="st79" d="M1504.9,1813.7v-13.2h6.2c-7.3,0-13.2,5.9-13.2,13.2c0,1.8,0.4,3.5,1,5.1v-3.6h5.9L1504.9,1813.7
					L1504.9,1813.7z"/>
			</g>
			<g>
				<defs>
					<circle id="SVGID_159_" cx="1463.9" cy="1774.2" r="40"/>
				</defs>
				<clipPath id="SVGID_160_">
					<use xlink:href="#SVGID_159_"  style="overflow:visible;"/>
				</clipPath>
				<path class="st80" d="M1504.9,1813.7v-12.6h6.2c-6.9,0-12.6,5.6-12.6,12.6c0,1.7,0.4,3.4,1,4.9v-3.4h5.4V1813.7z"/>
			</g>
			<g>
				<defs>
					<circle id="SVGID_161_" cx="1463.9" cy="1774.2" r="40"/>
				</defs>
				<clipPath id="SVGID_162_">
					<use xlink:href="#SVGID_161_"  style="overflow:visible;"/>
				</clipPath>
				<path class="st81" d="M1504.9,1813.7v-12h6.2c-6.6,0-12,5.4-12,12c0,1.7,0.3,3.2,0.9,4.7v-3.2h4.9V1813.7z"/>
			</g>
			<g>
				<defs>
					<circle id="SVGID_163_" cx="1463.9" cy="1774.2" r="40"/>
				</defs>
				<clipPath id="SVGID_164_">
					<use xlink:href="#SVGID_163_"  style="overflow:visible;"/>
				</clipPath>
				<path class="st82" d="M1504.9,1813.7v-11.4h6.2c-6.3,0-11.4,5.1-11.4,11.4c0,3.2,1.3,6,3.3,8.1v-6.6h1.9V1813.7z"/>
			</g>
			<g>
				<defs>
					<circle id="SVGID_165_" cx="1463.9" cy="1774.2" r="40"/>
				</defs>
				<clipPath id="SVGID_166_">
					<use xlink:href="#SVGID_165_"  style="overflow:visible;"/>
				</clipPath>
				<path class="st83" d="M1504.9,1813.7v-10.9h6.2c-6,0-10.9,4.9-10.9,10.9c0,3,1.2,5.7,3.2,7.7v-6.2h1.5L1504.9,1813.7
					L1504.9,1813.7z"/>
			</g>
			<g>
				<defs>
					<circle id="SVGID_167_" cx="1463.9" cy="1774.2" r="40"/>
				</defs>
				<clipPath id="SVGID_168_">
					<use xlink:href="#SVGID_167_"  style="overflow:visible;"/>
				</clipPath>
				<path class="st84" d="M1504.9,1813.7v-10.3h6.2c-5.7,0-10.3,4.6-10.3,10.3c0,2.8,1.2,5.4,3,7.3v-5.8h1.1L1504.9,1813.7
					L1504.9,1813.7z"/>
			</g>
			<g>
				<defs>
					<circle id="SVGID_169_" cx="1463.9" cy="1774.2" r="40"/>
				</defs>
				<clipPath id="SVGID_170_">
					<use xlink:href="#SVGID_169_"  style="overflow:visible;"/>
				</clipPath>
				<path class="st85" d="M1504.9,1813.7v-9.7h6.2c-5.4,0-9.7,4.4-9.7,9.7c0,2.7,1.1,5.1,2.8,6.9v-5.4h0.7V1813.7z"/>
			</g>
			<g>
				<defs>
					<circle id="SVGID_171_" cx="1463.9" cy="1774.2" r="40"/>
				</defs>
				<clipPath id="SVGID_172_">
					<use xlink:href="#SVGID_171_"  style="overflow:visible;"/>
				</clipPath>
				<path class="st86" d="M1504.9,1813.7v-9.2h6.2c-5.1,0-9.2,4.1-9.2,9.2c0,2.5,1,4.8,2.7,6.5v-5h0.3V1813.7z"/>
			</g>
			<g>
				<defs>
					<circle id="SVGID_173_" cx="1463.9" cy="1774.2" r="40"/>
				</defs>
				<clipPath id="SVGID_174_">
					<use xlink:href="#SVGID_173_"  style="overflow:visible;"/>
				</clipPath>
				<path class="st87" d="M1504.9,1813.7v-8.6h6.2c-4.7,0-8.6,3.8-8.6,8.6c0,2.4,1,4.5,2.5,6.1l-0.1-4.6V1813.7z"/>
			</g>
			<g>
				<defs>
					<circle id="SVGID_175_" cx="1463.9" cy="1774.2" r="40"/>
				</defs>
				<clipPath id="SVGID_176_">
					<use xlink:href="#SVGID_175_"  style="overflow:visible;"/>
				</clipPath>
				<path class="st88" d="M1504.9,1813.7v-8h6.2c-4.4,0-8,3.6-8,8s3.6,8,8,8l-6.2-6.5V1813.7z"/>
			</g>
			<g>
				<defs>
					<circle id="SVGID_177_" cx="1463.9" cy="1774.2" r="40"/>
				</defs>
				<clipPath id="SVGID_178_">
					<use xlink:href="#SVGID_177_"  style="overflow:visible;"/>
				</clipPath>
				<path class="st89" d="M1504.9,1813.7v-7.4h6.2c-4.1,0-7.4,3.3-7.4,7.4s3.3,7.4,7.4,7.4l-6.2-6V1813.7z"/>
			</g>
			<g>
				<defs>
					<circle id="SVGID_179_" cx="1463.9" cy="1774.2" r="40"/>
				</defs>
				<clipPath id="SVGID_180_">
					<use xlink:href="#SVGID_179_"  style="overflow:visible;"/>
				</clipPath>
				<path class="st90" d="M1504.9,1813.7v-6.9h6.2c-3.8,0-6.9,3.1-6.9,6.9s3.1,6.9,6.9,6.9l-6.2-5.4V1813.7z"/>
			</g>
			<g>
				<defs>
					<circle id="SVGID_181_" cx="1463.9" cy="1774.2" r="40"/>
				</defs>
				<clipPath id="SVGID_182_">
					<use xlink:href="#SVGID_181_"  style="overflow:visible;"/>
				</clipPath>
				<path class="st91" d="M1504.9,1813.7v-6.3h6.2C1507.6,1807.4,1504.8,1810.2,1504.9,1813.7c-0.1,3.5,2.7,6.3,6.2,6.3l-6.2-4.8
					V1813.7z"/>
			</g>
			<g>
				<defs>
					<circle id="SVGID_183_" cx="1463.9" cy="1774.2" r="40"/>
				</defs>
				<clipPath id="SVGID_184_">
					<use xlink:href="#SVGID_183_"  style="overflow:visible;"/>
				</clipPath>
				<path class="st92" d="M1504.9,1813.7v-5.7V1813.7z"/>
			</g>
			<g>
				<defs>
					<circle id="SVGID_185_" cx="1463.9" cy="1774.2" r="40"/>
				</defs>
				<clipPath id="SVGID_186_">
					<use xlink:href="#SVGID_185_"  style="overflow:visible;"/>
				</clipPath>
				<path class="st93" d="M1504.9,1813.7v-5.1V1813.7z"/>
			</g>
			<g>
				<defs>
					<circle id="SVGID_187_" cx="1463.9" cy="1774.2" r="40"/>
				</defs>
				<clipPath id="SVGID_188_">
					<use xlink:href="#SVGID_187_"  style="overflow:visible;"/>
				</clipPath>
				<path class="st94" d="M1504.9,1813.7v-4.6V1813.7z"/>
			</g>
			<g>
				<defs>
					<circle id="SVGID_189_" cx="1463.9" cy="1774.2" r="40"/>
				</defs>
				<clipPath id="SVGID_190_">
					<use xlink:href="#SVGID_189_"  style="overflow:visible;"/>
				</clipPath>
				<path class="st95" d="M1504.9,1813.7v-4V1813.7z"/>
			</g>
			<g>
				<defs>
					<circle id="SVGID_191_" cx="1463.9" cy="1774.2" r="40"/>
				</defs>
				<clipPath id="SVGID_192_">
					<use xlink:href="#SVGID_191_"  style="overflow:visible;"/>
				</clipPath>
				<path class="st96" d="M1504.9,1813.7v-3.4V1813.7z"/>
			</g>
			<g>
				<defs>
					<circle id="SVGID_193_" cx="1463.9" cy="1774.2" r="40"/>
				</defs>
				<clipPath id="SVGID_194_">
					<use xlink:href="#SVGID_193_"  style="overflow:visible;"/>
				</clipPath>
				<path class="st97" d="M1504.9,1813.7v-2.9V1813.7z"/>
			</g>
			<g>
				<defs>
					<circle id="SVGID_195_" cx="1463.9" cy="1774.2" r="40"/>
				</defs>
				<clipPath id="SVGID_196_">
					<use xlink:href="#SVGID_195_"  style="overflow:visible;"/>
				</clipPath>
				<path class="st98" d="M1504.9,1813.7v-2.3V1813.7z"/>
			</g>
			<g>
				<defs>
					<circle id="SVGID_197_" cx="1463.9" cy="1774.2" r="40"/>
				</defs>
				<clipPath id="SVGID_198_">
					<use xlink:href="#SVGID_197_"  style="overflow:visible;"/>
				</clipPath>
				<path class="st99" d="M1504.9,1813.7v-1.7V1813.7z"/>
			</g>
			<g>
				<defs>
					<circle id="SVGID_199_" cx="1463.9" cy="1774.2" r="40"/>
				</defs>
				<clipPath id="SVGID_200_">
					<use xlink:href="#SVGID_199_"  style="overflow:visible;"/>
				</clipPath>
				<path class="st100" d="M1504.9,1813.7v-1.1V1813.7z"/>
			</g>
			<g>
				<defs>
					<circle id="SVGID_201_" cx="1463.9" cy="1774.2" r="40"/>
				</defs>
				<clipPath id="SVGID_202_">
					<use xlink:href="#SVGID_201_"  style="overflow:visible;"/>
				</clipPath>
				<path class="st101" d="M1504.9,1813.7v-0.6V1813.7z"/>
			</g>
		</g>
	</g>
	<g transform="matrix(1, 0, 0, 1, 1403, 1713.92)">
		<g class="st102">
			<path class="st103" d="M68.5,62.3c1.8,1.6,2.7,3.7,2.7,6.4c0,1.8-0.4,3.3-1.3,4.7s-2.1,2.4-3.8,3.2c-1.7,0.8-3.7,1.2-6,1.2
				s-4.4-0.4-6.4-1.1c-2-0.8-3.6-1.8-4.7-3.1l1.2-1.8c1,1.1,2.4,2.1,4.2,2.8c1.8,0.7,3.7,1.1,5.8,1.1c2.8,0,4.9-0.6,6.4-1.9
				c1.5-1.2,2.3-2.9,2.3-5.1s-0.8-3.9-2.3-5.1c-1.5-1.2-3.8-1.8-6.9-1.8h-2v-1.7L67,48.2H50.2v-2.1H70v1.6l-9.4,12.1
				C64,59.9,66.7,60.7,68.5,62.3z"/>
		</g>
	</g>
</g>
</svg>
