<?xml version="1.0" encoding="utf-8"?>
<!-- Generator: Adobe Illustrator 24.1.2, SVG Export Plug-In . SVG Version: 6.00 Build 0)  -->
<svg version="1.1" id="Layer_1" xmlns="https://www.w3.org/2000/svg" xmlns:xlink="https://www.w3.org/1999/xlink" x="0px" y="0px"
	 viewBox="0 0 1000 1000" style="enable-background:new 0 0 1000 1000;" xml:space="preserve">
<style type="text/css">
	.st0{fill:#FBB040;}
	.st1{fill:#0E1F33;}
	.st2{fill:#F7941D;}
	.st3{opacity:0.3;fill:url(#SVGID_1_);}
</style>
<g>
	<g>
		<g>
			<path class="st0" d="M686.64,627.37c0,0-73.72-76.02-149.74,0C536.91,627.37,614.12,748.62,686.64,627.37z"/>
		</g>
		<g>
			<g>
				<path class="st1" d="M554.25,882.94c-29.66,0-59.43-5.42-88.02-16.28c-59.95-22.78-107.95-66.92-135.15-124.29
					c-39.88-84.11-29.14-181.54,26.45-254.42l-69.23-146.55c-31.14,1.98-61.87-14.82-75.99-44.71c-8.94-18.92-9.97-40.19-2.91-59.89
					c7.06-19.7,21.37-35.47,40.29-44.41l153.33-72.43c18.92-8.94,40.18-9.98,59.89-2.92c19.7,7.06,35.47,21.37,44.41,40.29
					c8.94,18.92,9.97,40.19,2.91,59.89c-3.69,10.29-9.35,19.51-16.62,27.24l69.21,146.51c91.45,3.35,173.46,56.81,213.15,140.83
					c28.84,61.04,31.51,129.42,7.52,192.55c-23.98,63.1-71.45,112.47-133.67,139.01C619.24,876.41,586.81,882.94,554.25,882.94z
					 M306.91,266.75c3.89,0,7.79,0.66,11.52,2c8.52,3.05,15.48,9.37,19.35,17.56l90.8,192.23c5.94,12.58,3.66,27.51-5.78,37.74
					c-49.51,53.65-61.3,130.92-30.04,196.84c40.38,85.15,143.67,124.38,230.24,87.45c45-19.19,79.32-54.87,96.64-100.46
					c17.33-45.61,15.4-95.02-5.43-139.13c-31.11-65.86-98.24-105.73-171-101.58c-13.95,0.78-26.88-6.92-32.82-19.5l-90.8-192.23
					c-8.05-17.05-0.76-37.4,16.28-45.45l4.89-2.31c3.12-1.47,4.54-3.92,5.18-5.7c0.64-1.79,1.1-4.58-0.37-7.69
					c-1.47-3.12-3.91-4.53-5.7-5.17c-1.79-0.64-4.57-1.1-7.69,0.37l-153.34,72.43c-3.12,1.47-4.53,3.91-5.17,5.7
					c-0.64,1.79-1.1,4.58,0.38,7.69c2.37,5.01,8.39,7.16,13.41,4.79l4.87-2.3C296.93,267.85,301.92,266.75,306.91,266.75z"/>
			</g>
		</g>
		<g>
			<g>
				<path class="st2" d="M551.58,640.03c-65.14-62.6-116.64-26.29-135.39-8.28c-0.17,2.74-0.28,5.5-0.28,8.28
					c0,74.93,60.74,135.67,135.67,135.67s135.67-60.74,135.67-135.67c0-4.27-0.22-8.49-0.61-12.66
					C680.54,637.22,628.92,714.36,551.58,640.03z"/>
			</g>
		</g>
		<g>
			<circle class="st2" cx="612.54" cy="560.17" r="16.77"/>
		</g>
		<g>
			<circle class="st2" cx="505.5" cy="538.41" r="34.73"/>
		</g>
		<g>
			<circle class="st0" cx="470.77" cy="669.64" r="10.83"/>
		</g>
		<g>
			<circle class="st0" cx="559.46" cy="704.37" r="26.62"/>
		</g>
		<path class="st1" d="M486.46,284.2l-64.27,28.99c-9.11,4.11-19.84,0.06-23.95-9.06v0c-4.11-9.11-0.06-19.84,9.06-23.95
			l64.27-28.99c9.11-4.11,19.84-0.06,23.95,9.06l0,0C499.63,269.37,495.57,280.09,486.46,284.2z"/>
		<path class="st1" d="M512.66,341.79l-64.27,28.99c-9.11,4.11-19.84,0.06-23.95-9.06l0,0c-4.11-9.11-0.06-19.84,9.06-23.95
			l64.27-28.99c9.11-4.11,19.84-0.06,23.95,9.06v0C525.84,326.96,521.78,337.68,512.66,341.79z"/>
		<path class="st1" d="M541.42,404.99l-64.27,28.99c-9.11,4.11-19.84,0.06-23.95-9.06l0,0c-4.11-9.11-0.06-19.84,9.06-23.95
			l64.27-28.99c9.11-4.11,19.84-0.06,23.95,9.06v0C554.6,390.16,550.54,400.88,541.42,404.99z"/>
	</g>
	<linearGradient id="SVGID_1_" gradientUnits="userSpaceOnUse" x1="48.9747" y1="712.1683" x2="480.416" y2="513.3669">
		<stop  offset="0" style="stop-color:#0E1F33;stop-opacity:0"/>
		<stop  offset="1" style="stop-color:#0E1F33"/>
	</linearGradient>
	<path class="st3" d="M316.7,160.75L0,312.54V1000h345.73L649.8,863.37l-144.3-6.87L343.05,731l34.54-204.51c0,0,7.97-31.37,0-73.89
		S252.71,282.19,252.71,282.19s-21.26-10.29-18.6-23.58c2.66-13.29,16.8-29.23,38.96-39.86S316.7,160.75,316.7,160.75z"/>
</g>
</svg>
