<?xml version="1.0" encoding="utf-8"?>
<!-- Generator: Adobe Illustrator 24.1.2, SVG Export Plug-In . SVG Version: 6.00 Build 0)  -->
<svg version="1.1" id="Layer_1" xmlns="http://www.w3.org/2000/svg" xmlns:xlink="http://www.w3.org/1999/xlink" x="0px" y="0px"
	 viewBox="0 0 113 113" style="enable-background:new 0 0 113 113;" xml:space="preserve">
	 <defs>
		 <filter id="fshadow" x="-20%" y="-20%" width="140%" height="140%" filterUnits="objectBoundingBox" primitiveUnits="userSpaceOnUse" color-interpolation-filters="sRGB">
			 <feDropShadow stdDeviation="5 5" in="SourceGraphic" dx="7" dy="7" flood-color="#252c31" flood-opacity="0.3" x="0%" y="0%" width="100%" height="100%" result="dropShadow"/>
		 </filter>
  </defs>
<style type="text/css">
	.st0{fill:url(#pg3_buttonPlay_Base-2_1_);}
	.st1{fill:none;}
	.st2{fill:#E6E6EC;}
</style>
<g transform="matrix(1, 0, 0, 1, 0, 0)">

		<linearGradient id="pg3_buttonPlay_Base-2_1_" gradientUnits="userSpaceOnUse" x1="-685.6569" y1="799.6785" x2="-684.5898" y2="798.5605" gradientTransform="matrix(95 0 0 -95 65146 75976)">
		<stop  offset="0" style="stop-color:#FECDC4"/>
		<stop  offset="0.205" style="stop-color:#F4564F"/>
		<stop  offset="0.515" style="stop-color:#FB613B"/>
		<stop  offset="1" style="stop-color:#FFCD40"/>
	</linearGradient>
	<circle filter="url(#fshadow)" id="pg3_buttonPlay_Base-2" class="st0" cx="51.5" cy="51.5" r="47.5"/>
</g>
<g transform="matrix(1, 0, 0, 1, 0, 0)">
	<g id="pg3_buttonPlay_Triangle-2" transform="translate(39.65 4) rotate(90)">
		<path class="st1" d="M44.9-30c0.8-1.4,2.6-2,4.1-1.2c0.5,0.3,0.9,0.7,1.2,1.2L64.9-3.6c0.8,1.4,0.3,3.3-1.2,4.1
			c-0.4,0.2-1,0.4-1.5,0.4H32.7c-1.7,0-3-1.3-3-3c0-0.5,0.1-1,0.4-1.5L44.9-30z"/>
		<path class="st2" d="M47.5-28.6L47.5-28.6L32.7-2.1h29.6c0,0,0,0,0,0L47.5-28.6 M47.5-31.6c1,0,2,0.5,2.6,1.5L64.9-3.6
			c1.1,2-0.3,4.5-2.6,4.5c0,0,0,0,0,0H32.7c-2.3,0-3.7-2.5-2.6-4.5L44.9-30C45.5-31.1,46.5-31.6,47.5-31.6z"/>
	</g>
</g>
</svg>
