<svg xmlns="https://www.w3.org/2000/svg" viewBox="0 0 198.75 448.59"><defs><style>.cls-1{opacity:0.3;}.cls-2{fill:#fbfbfb;}</style></defs><g id="Layer_2" data-name="Layer 2"><g id="pg1_dotsMiddle" class="cls-1"><path id="pg1_dotsMiddle-2" data-name="pg1_dotsMiddle" class="cls-2" d="M67.41,448.59a3.49,3.49,0,1,1,3.49-3.49,3.5,3.5,0,0,1-3.49,3.49Zm-32,0a3.49,3.49,0,1,1,3.49-3.49A3.49,3.49,0,0,1,35.45,448.59Zm-32,0A3.49,3.49,0,1,1,7,445.1a3.5,3.5,0,0,1-3.49,3.49Zm191.78,0a3.49,3.49,0,0,1,0-7h0a3.47,3.47,0,0,1,2.46,1,3.44,3.44,0,0,1,1,2.47,3.5,3.5,0,0,1-3.48,3.49Zm-32,0a3.48,3.48,0,0,1-3.48-3.49,3.47,3.47,0,0,1,3.48-3.49,3.49,3.49,0,0,1,0,7Zm-32,0a3.49,3.49,0,1,1,3.49-3.49,3.51,3.51,0,0,1-3.49,3.49Zm-32,0a3.49,3.49,0,1,1,3.48-3.49,3.5,3.5,0,0,1-3.48,3.49Zm95.89-36.81a3.49,3.49,0,1,1,3.48-3.49,3.49,3.49,0,0,1-3.48,3.49Zm-32,0a3.49,3.49,0,0,1-2.47-5.95,3.44,3.44,0,0,1,2.46-1,3.48,3.48,0,1,1,0,7Zm-32,0a3.5,3.5,0,0,1-3.49-3.49,3.48,3.48,0,0,1,1-2.46,3.42,3.42,0,0,1,2.46-1,3.48,3.48,0,1,1,0,7Zm-32,0a3.48,3.48,0,1,1,3.48-3.49,3.5,3.5,0,0,1-3.48,3.49Zm-32,0a3.48,3.48,0,1,1,0-7,3.48,3.48,0,0,1,3.49,3.47,3.45,3.45,0,0,1-1,2.47,3.49,3.49,0,0,1-2.46,1Zm-63.92,0a3.45,3.45,0,0,1-2.46-1,3.49,3.49,0,0,1,0-4.93,3.44,3.44,0,0,1,2.46-1,3.48,3.48,0,1,1,0,7Zm32-1.23v1.23A3.48,3.48,0,0,1,32,408.29a3.47,3.47,0,0,1,1-2.45,3.43,3.43,0,0,1,2.47-1,3.48,3.48,0,1,1,0,7Zm32-35.57a3.49,3.49,0,1,1,3.49-3.49A3.48,3.48,0,0,1,67.41,375ZM3.48,375A3.49,3.49,0,1,1,7,371.5,3.49,3.49,0,0,1,3.48,375Zm159.82,0a3.49,3.49,0,0,1-2.47-6,3.5,3.5,0,0,1,2.48-1,3.48,3.48,0,0,1,3.48,3.49,3.49,3.49,0,0,1-3.48,3.48Zm-32,0a3.49,3.49,0,1,1,0-7,3.5,3.5,0,0,1,3.49,3.49,3.48,3.48,0,0,1-1,2.46,3.43,3.43,0,0,1-2.46,1Zm-32,0a3.48,3.48,0,1,1,2.46-1,3.45,3.45,0,0,1-2.46,1Zm-63.93,0a3.49,3.49,0,1,1,3.49-3.48A3.49,3.49,0,0,1,35.45,375Zm159.82,0a3.48,3.48,0,1,1,2.47-1,3.44,3.44,0,0,1-2.47,1ZM67.41,338.18a3.49,3.49,0,1,1,3.49-3.49,3.49,3.49,0,0,1-3.49,3.49Zm127.85,0a3.49,3.49,0,1,1,3.49-3.49,3.5,3.5,0,0,1-3.49,3.49Zm-31.95,0a3.49,3.49,0,1,1,3.48-3.49,3.49,3.49,0,0,1-3.48,3.49Zm-32,0a3.49,3.49,0,1,1,3.49-3.49A3.5,3.5,0,0,1,131.34,338.18Zm-32,0a3.5,3.5,0,0,1-3.49-3.49,3.4,3.4,0,0,1,1-2.46,3.44,3.44,0,0,1,2.46-1h0a3.49,3.49,0,0,1,0,7Zm-63.93,0A3.5,3.5,0,0,1,32,334.69a3.52,3.52,0,0,1,3.49-3.49,3.5,3.5,0,0,1,3.49,3.49,3.48,3.48,0,0,1-3.49,3.49Zm-32,0a3.48,3.48,0,0,1-2.45-1,3.41,3.41,0,0,1-1-2.47,3.35,3.35,0,0,1,1-2.46,3.46,3.46,0,0,1,2.46-1,3.49,3.49,0,0,1,0,7Zm191.78-36.8a3.5,3.5,0,1,1,3.49-3.49,3.5,3.5,0,0,1-3.49,3.49Zm-191.78,0A3.5,3.5,0,1,1,7,297.89a3.5,3.5,0,0,1-3.49,3.49Zm159.82,0a3.48,3.48,0,0,1-3.48-3.49,3.47,3.47,0,0,1,3.48-3.49,3.48,3.48,0,0,1,3.49,3.49,3.5,3.5,0,0,1-3.48,3.49Zm-32,0a3.49,3.49,0,1,1,3.49-3.49,3.49,3.49,0,0,1-3.49,3.49Zm-32,0a3.49,3.49,0,1,1,3.48-3.49,3.5,3.5,0,0,1-3.48,3.49Zm-32,0a3.49,3.49,0,1,1,3.48-3.49,3.5,3.5,0,0,1-3.48,3.49Zm-32,0a3.49,3.49,0,1,1,3.49-3.49,3.49,3.49,0,0,1-3.49,3.49Zm127.86-36.81a3.48,3.48,0,1,1,3.48-3.49,3.49,3.49,0,0,1-3.48,3.49Zm-32,0a3.48,3.48,0,1,1,3.49-3.49,3.49,3.49,0,0,1-3.49,3.49Zm63.93,0a3.5,3.5,0,0,1-3.49-3.49,3.49,3.49,0,0,1,3.49-3.47,3.43,3.43,0,0,1,2.47,1,3.49,3.49,0,0,1-2.47,5.94Zm-159.82,0A3.5,3.5,0,0,1,32,261.1a3.49,3.49,0,0,1,3.49-3.49,3.43,3.43,0,0,1,2.47,1,3.48,3.48,0,0,1,0,4.92,3.43,3.43,0,0,1-2.47,1Zm63.93,0a3.49,3.49,0,0,1-3.49-3.49,3.5,3.5,0,0,1,3.49-3.47,3.48,3.48,0,1,1,0,7Zm-32,0a3.48,3.48,0,1,1,3.48-3.49A3.49,3.49,0,0,1,67.42,264.57Zm-63.93,0A3.48,3.48,0,1,1,7,261.08,3.49,3.49,0,0,1,3.49,264.57Zm63.92-36.8a3.49,3.49,0,1,1,3.49-3.48,3.48,3.48,0,0,1-3.49,3.48Zm-63.93,0A3.49,3.49,0,1,1,7,224.29a3.49,3.49,0,0,1-3.49,3.48Zm159.82,0a3.47,3.47,0,1,1,2.47-1,3.48,3.48,0,0,1-2.47,1Zm-32,0a3.49,3.49,0,1,1,3.49-3.48A3.49,3.49,0,0,1,131.34,227.77Zm-32,0a3.49,3.49,0,1,1,3.49-3.48,3.49,3.49,0,0,1-3.49,3.48Zm-63.92,0a3.46,3.46,0,0,1-2.46-1,3.49,3.49,0,1,1,2.46,1Zm159.82,0a3.49,3.49,0,1,1,3.48-3.48,3.45,3.45,0,0,1-3.48,3.48ZM67.41,191a3.49,3.49,0,1,1,3.49-3.49A3.5,3.5,0,0,1,67.41,191Zm127.85,0a3.49,3.49,0,1,1,3.49-3.49,3.5,3.5,0,0,1-3.49,3.49Zm-32,0a3.49,3.49,0,1,1,3.49-3.49A3.5,3.5,0,0,1,163.3,191Zm-32,0a3.49,3.49,0,1,1,0-7,3.48,3.48,0,0,1,3.49,3.48A3.51,3.51,0,0,1,131.34,191Zm-32,0a3.49,3.49,0,1,1,3.48-3.49A3.49,3.49,0,0,1,99.38,191Zm-63.93,0A3.49,3.49,0,0,1,33,185a3.49,3.49,0,1,1,2.46,6Zm-32,0A3.46,3.46,0,0,1,1,190,3.49,3.49,0,0,1,1,185a3.49,3.49,0,1,1,2.46,6Zm63.92-36.81a3.49,3.49,0,1,1,3.49-3.49,3.49,3.49,0,0,1-3.49,3.49Zm95.89,0a3.49,3.49,0,0,1-2.46-1,3.49,3.49,0,0,1,2.47-6,3.5,3.5,0,0,1,3.48,3.49,3.45,3.45,0,0,1-1,2.47,3.41,3.41,0,0,1-2.46,1Zm-32,0a3.49,3.49,0,1,1,3.49-3.49,3.49,3.49,0,0,1-3.49,3.49Zm-95.89,0a3.49,3.49,0,1,1,3.49-3.49,3.49,3.49,0,0,1-3.49,3.49Zm-32,0A3.49,3.49,0,1,1,7,150.68a3.49,3.49,0,0,1-3.48,3.49Zm191.78,0a3.47,3.47,0,1,1,2.47-1,3.49,3.49,0,0,1-2.47,1Zm-95.89,0a3.49,3.49,0,1,1,3.48-3.49,3.49,3.49,0,0,1-3.48,3.49Zm63.93-36.8a3.49,3.49,0,1,1,3.48-3.49,3.48,3.48,0,0,1-3.48,3.49Zm32-1.22v1.22a3.49,3.49,0,1,1,2.48-6,3.55,3.55,0,0,1,1,2.48,3.48,3.48,0,0,1-3.48,3.48Zm-63.93,0v1.22a3.49,3.49,0,1,1,3.49-3.49,3.44,3.44,0,0,1-1,2.46,3.4,3.4,0,0,1-2.46,1Zm-32,1.22a3.48,3.48,0,1,1,2.47-1,3.46,3.46,0,0,1-2.47,1Zm-32-1.22v1.22a3.5,3.5,0,1,1,2.47-1,3.42,3.42,0,0,1-2.47,1Zm-32,1.22a3.4,3.4,0,0,1-2.46-1,3.44,3.44,0,0,1-1-2.46,3.48,3.48,0,0,1,3.49-3.48,3.49,3.49,0,0,1,0,7Zm-32,0a3.41,3.41,0,0,1-2.45-1,3.46,3.46,0,0,1,0-4.91,3.41,3.41,0,0,1,2.45-1,3.49,3.49,0,1,1,0,7ZM163.3,80.58a3.5,3.5,0,0,1-2.47-6,3.54,3.54,0,0,1,2.48-1h0a3.49,3.49,0,0,1,2.46,1,3.44,3.44,0,0,1,1,2.47,3.5,3.5,0,0,1-3.48,3.49Zm-32,0a3.49,3.49,0,1,1,3.49-3.49,3.52,3.52,0,0,1-3.49,3.49Zm-95.89,0a3.49,3.49,0,1,1,3.49-3.49,3.51,3.51,0,0,1-3.49,3.49Zm-32,0a3.49,3.49,0,0,1,0-7,3.49,3.49,0,0,1,0,7Zm191.78,0a3.49,3.49,0,1,1,2.46-6,3.44,3.44,0,0,1,1,2.47,3.48,3.48,0,0,1-3.48,3.49Zm-95.89,0a3.48,3.48,0,1,1,2.47-1,3.51,3.51,0,0,1-2.47,1Zm-32,0a3.47,3.47,0,0,1-3.49-3.47,3.49,3.49,0,1,1,5.95,2.46,3.44,3.44,0,0,1-2.46,1Zm63.92-36.79a3.49,3.49,0,0,1-3.49-3.49,3.52,3.52,0,0,1,3.49-3.49,3.49,3.49,0,1,1,0,7Zm-32,0a3.49,3.49,0,1,1,3.48-3.49,3.49,3.49,0,0,1-3.48,3.49Zm-32,0a3.49,3.49,0,0,1,0-7,3.49,3.49,0,0,1,0,7Zm127.85,0a3.49,3.49,0,1,1,3.48-3.49,3.49,3.49,0,0,1-3.48,3.49Zm-32,0a3.49,3.49,0,1,1,3.48-3.49,3.49,3.49,0,0,1-3.48,3.49Zm-127.86,0A3.5,3.5,0,0,1,32,40.28a3.52,3.52,0,0,1,3.49-3.49,3.49,3.49,0,0,1,0,7Zm-32,0a3.47,3.47,0,1,1,2.47-1,3.49,3.49,0,0,1-2.47,1ZM163.3,7a3.49,3.49,0,1,1,3.49-3.49A3.48,3.48,0,0,1,163.3,7ZM3.49,7A3.48,3.48,0,1,1,6,5.94,3.44,3.44,0,0,1,3.49,7ZM195.27,7a3.48,3.48,0,1,1,2.47-1,3.44,3.44,0,0,1-2.47,1ZM131.34,7a3.49,3.49,0,1,1,3.49-3.49A3.49,3.49,0,0,1,131.34,7ZM35.45,7a3.49,3.49,0,1,1,3.49-3.49A3.5,3.5,0,0,1,35.45,7Zm32,0a3.42,3.42,0,0,1-2.47-1,3.43,3.43,0,0,1-1-2.46A3.49,3.49,0,1,1,67.42,7Zm32,0a3.49,3.49,0,1,1,3.48-3.49A3.49,3.49,0,0,1,99.38,7Z"/></g></g></svg>